<svg width="55" height="54" viewBox="0 0 55 54" fill="none" xmlns="http://www.w3.org/2000/svg">
<g clip-path="url(#clip0)">
<path d="M34.1422 14.0701H20.5836C19.0159 14.0719 17.5129 14.6939 16.4046 15.7997C15.2962 16.9056 14.6731 18.4048 14.6719 19.9683V34.0316C14.6734 35.595 15.2967 37.0938 16.405 38.1993C17.5133 39.3048 19.0161 39.9266 20.5836 39.9282H34.1422C35.7097 39.9266 37.2125 39.3048 38.3208 38.1993C39.4291 37.0938 40.0524 35.595 40.0539 34.0316V19.9683C40.0527 18.4048 39.4296 16.9056 38.3212 15.7997C37.2129 14.6939 35.7099 14.0719 34.1422 14.0701ZM27.3632 35.3286C22.7575 35.3286 19.0107 31.5917 19.0107 26.9989C19.0107 22.406 22.7575 18.6686 27.3632 18.6686C31.9688 18.6686 35.7134 22.4071 35.7134 27.0005C35.7134 31.594 31.9683 35.3286 27.3632 35.3286ZM35.9571 20.2914C35.5869 20.2915 35.225 20.1822 34.9172 19.9771C34.6093 19.7721 34.3694 19.4806 34.2277 19.1395C34.0859 18.7984 34.0488 18.4231 34.121 18.061C34.1932 17.6989 34.3715 17.3662 34.6332 17.1052C34.895 16.8441 35.2285 16.6663 35.5916 16.5943C35.9547 16.5223 36.331 16.5593 36.673 16.7007C37.015 16.842 37.3072 17.0813 37.5128 17.3884C37.7184 17.6954 37.8281 18.0563 37.828 18.4255C37.8284 18.9203 37.6318 19.395 37.2814 19.7452C36.931 20.0954 36.4555 20.2925 35.9594 20.2931L35.9571 20.2914Z" fill="white"/>
<path d="M33.1128 27.0108C33.1183 23.8442 30.5489 21.2727 27.3739 21.2672C24.1989 21.2617 21.6206 23.8242 21.615 26.9908C21.6095 30.1574 24.1788 32.7288 27.3539 32.7344C30.5289 32.7399 33.1072 30.1774 33.1128 27.0108Z" fill="white"/>
<path d="M27.3631 0C12.4114 0 0.290527 12.0886 0.290527 27.0006C0.290527 41.9125 12.4114 54.0005 27.3631 54.0005C42.3148 54.0005 54.4351 41.912 54.4351 27.0006C54.4351 12.0892 42.3142 0 27.3631 0ZM43.3082 34.0316C43.3083 35.2322 43.0712 36.421 42.6106 37.5301C42.15 38.6393 41.4748 39.6471 40.6237 40.496C39.7725 41.3449 38.762 42.0183 37.6499 42.4776C36.5378 42.937 35.3458 43.1734 34.1421 43.1734H20.5835C19.3798 43.1734 18.1879 42.9369 17.0759 42.4775C15.9638 42.0181 14.9534 41.3447 14.1023 40.4958C13.2512 39.6469 12.5761 38.6391 12.1155 37.53C11.6549 36.4209 11.4179 35.2321 11.418 34.0316V19.9683C11.418 17.5439 12.3836 15.2189 14.1025 13.5046C15.8214 11.7903 18.1526 10.8272 20.5835 10.8272H34.1421C35.3458 10.8271 36.5377 11.0635 37.6498 11.5228C38.7619 11.9822 39.7723 12.6555 40.6235 13.5044C41.4746 14.3532 42.1498 15.3609 42.6105 16.47C43.0711 17.5791 43.3082 18.7679 43.3082 19.9683V34.0316Z" fill="white"/>
</g>
<defs>
<clipPath id="clip0">
<rect width="54.144" height="54" fill="white" transform="translate(0.290527)"/>
</clipPath>
</defs>
</svg>
