<svg width="137" height="36" viewBox="0 0 137 36" fill="none" xmlns="http://www.w3.org/2000/svg">
<g clip-path="url(#clip0)">
<path d="M106.906 28.586L106.752 28.4331L106.521 28.3949H106.291V28.4331L106.098 28.5095L105.944 28.586H105.713L105.559 28.7006L105.367 28.7388L105.175 28.8153L104.982 28.8917L104.79 28.9299L104.597 29.0064H104.366L104.174 29.0828L104.02 29.1592L103.828 29.2357H103.597L103.443 29.3121L103.212 29.3503L103.019 29.4267L102.827 29.465H102.635L102.442 29.5414L102.25 29.5796L102.057 29.6178L101.865 29.6943H101.673L101.48 29.7707L101.288 29.8089L101.095 29.8853H100.864L100.672 29.9618H100.48L100.287 30L100.095 30.0382L99.9024 30.0764L99.7099 30.1146L99.5175 30.1911H99.2866L99.0942 30.2675H98.9018L98.7094 30.3057L98.517 30.3439L98.3245 30.3822L98.1321 30.4204H97.9012L97.7088 30.4968L97.5164 30.535H97.324H97.0931L96.9007 30.5732L96.7082 30.6115L96.5158 30.6879L96.3234 30.7261L96.131 30.7643H95.9001H95.7077L95.5153 30.8408L95.3229 30.8025L95.1304 30.879H94.8995L94.7071 30.9172L94.5147 30.9554H94.3223L94.0914 30.9936L93.899 31.0318L93.7066 31.0701H93.5141L93.3217 31.1083H93.0908L92.8984 31.1465L92.706 31.1847L92.5136 31.2229H92.3212L92.0903 31.2611H91.8979L91.7054 31.2994H91.513L91.3206 31.3376L91.0897 31.2994L90.8973 31.3376L90.7049 31.3758H90.5125L90.2816 31.414L90.0891 31.4522H89.8967L89.7043 31.4904H89.4734H89.281L89.0886 31.5287L88.8962 31.5669L88.6653 31.5287L88.4728 31.6051H88.2804H88.088L87.8956 31.6433H87.6647H87.4723L87.2799 31.6815H87.0875H86.8566L86.6641 31.7197H86.4717H86.2793L86.0484 31.758L85.856 31.7197L85.6636 31.758L85.4712 31.7962H85.2788H85.0479L84.8554 31.8344H84.663L84.4706 31.7962L84.2397 31.8344L84.0473 31.8726H83.8549H83.6625H83.4316L83.2391 31.9108L83.0467 31.8726L82.8543 31.9108L82.6234 31.8726L82.431 31.9108L82.2386 31.8726L82.0462 31.9108H81.8153H81.6229H81.4304H81.238L81.0071 31.949L80.8147 31.9108H80.6223H80.4299L80.199 31.949L80.0066 31.9108H79.8141L79.6217 31.949L79.3908 31.9108L79.1984 31.949L79.006 31.8726H78.8136L78.5827 31.9108L78.3903 31.8726L78.1978 31.9108H78.0054L77.7745 31.8726H77.5821L77.3897 31.8344H77.1973H76.9664H76.774H76.5816H76.3891H76.1582L75.9658 31.7962H75.9273H75.6964L75.504 31.949L75.4271 32.1401L75.3501 32.3312L75.4271 32.5605L75.5425 32.7516L75.7349 32.8662L75.9273 32.9427H76.1198L76.3507 32.9044H76.5431L76.7355 32.9427L76.9664 32.9044H77.1588L77.3512 32.8662L77.5821 32.9044H77.7745H77.967H78.1594L78.3903 32.8662H78.5827H78.7751H79.006H79.1984L79.3908 32.828L79.6217 32.8662L79.8141 32.828H80.0066H80.199H80.4299L80.6223 32.7898L80.8147 32.7516L81.0456 32.7898H81.238H81.4304L81.6229 32.7516L81.8537 32.7134H82.0462H82.2386H82.4695L82.6619 32.6752L82.8543 32.7134L83.0467 32.6752H83.2776L83.47 32.6369L83.6625 32.5987L83.8934 32.6369L84.0858 32.5987H84.2782L84.4706 32.5605L84.7015 32.5987L84.8939 32.5223L85.0863 32.5605L85.2788 32.4841H85.5096H85.7021H85.8945L86.1254 32.4459L86.3178 32.4841L86.5102 32.4459L86.7026 32.3694L86.9335 32.4076H87.1259L87.3184 32.3694L87.5108 32.3312L87.7417 32.3694L87.9341 32.3312H88.1265L88.3189 32.293H88.5498L88.7422 32.2166H88.9347L89.1271 32.1783L89.358 32.1401L89.5504 32.1783L89.7428 32.1401H89.9737L90.1661 32.1019L90.3585 32.0637H90.5509L90.7434 32.0255L90.9743 31.9873H91.1667L91.3591 31.949H91.59H91.7824L91.9748 31.9108H92.1672L92.3597 31.8344L92.5906 31.8726L92.783 31.8344L92.9754 31.7962H93.2063L93.3987 31.758L93.5911 31.7197H93.7835L94.0144 31.6815H94.2068L94.3993 31.6051H94.5917H94.8226L95.015 31.5669L95.2074 31.5287H95.3998L95.5922 31.4904H95.8231L96.0156 31.4522L96.208 31.414L96.4004 31.3758H96.6313L96.8237 31.3376L97.0161 31.2994L97.2085 31.2611H97.4394L97.6318 31.1847H97.8243H98.0167L98.2091 31.1083L98.44 31.0701H98.6324L98.8248 31.0318H99.0172L99.2096 30.9554L99.4405 30.9172H99.633L99.8254 30.879L100.018 30.8408L100.21 30.8025H100.403H100.595L100.787 30.7261H101.018L101.211 30.6879L101.403 30.6497L101.596 30.5732H101.788L101.98 30.535L102.173 30.4968L102.365 30.4586L102.558 30.3822L102.75 30.3439H102.981L103.173 30.3057L103.366 30.2675L103.558 30.2293L103.751 30.1911L103.943 30.1529L104.135 30.1146L104.328 30.0764L104.52 30.0382L104.713 30L104.905 29.9236L105.098 29.8853L105.29 29.8089H105.482L105.675 29.7325L105.867 29.6943L106.098 29.656L106.252 29.5796H106.483L106.675 29.5032V29.465L106.868 29.3503L107.022 29.1974L107.099 28.9681L107.022 28.7771L106.906 28.586Z" fill="white"/>
<path d="M62.3812 31.4522L62.1888 31.3758L61.9579 31.2994H61.7655H61.5731H61.3806H61.1497L60.9573 31.2612L60.7649 31.2994H60.5725L60.3416 31.2612H60.1492H59.9568H59.7644L59.5335 31.2994L59.341 31.2612H59.1486H58.9177L58.7253 31.2229L58.5329 31.2612L58.3405 31.1847H58.1096H57.9172H57.7248H57.5323L57.3014 31.1465H57.109H56.9166H56.7242L56.4933 31.1083H56.3009L56.1085 31.0701H55.916H55.6851H55.4927L55.3003 31.0319H55.1079L54.9155 30.9936H54.6846L54.4922 30.9172L54.2998 30.9554L54.1073 30.879H53.8764H53.684L53.4916 30.8408L53.2992 30.8026H53.0683H52.8759H52.6835L52.491 30.7643L52.2986 30.6879L52.0677 30.7261L51.8753 30.6879L51.6829 30.6497H51.4905L51.2596 30.6115L51.0672 30.5733H50.8748L50.6823 30.535L50.4899 30.4968L50.259 30.4586H50.0666L49.8742 30.3822H49.6818L49.4894 30.344L49.2969 30.3057H49.1045L48.9121 30.2293L48.7197 30.1911L48.4888 30.2293L48.2964 30.1529L48.104 30.1147H47.9116L47.7191 30.0764L47.5267 30L47.3343 29.9618H47.1419L46.9495 29.9236L46.7571 29.8854L46.5646 29.8089H46.3722L46.1798 29.7325H45.9874L45.795 29.6561H45.5641L45.4101 29.5796L45.1792 29.5414L44.9868 29.5032L44.8329 29.4268L44.602 29.3885L44.4096 29.3503L44.2172 29.3121L44.0248 29.2357L43.8323 29.1975L43.6399 29.1592L43.409 29.121L43.2166 29.0446L43.0242 28.9682L42.8318 28.9299L42.6394 28.8917L42.4469 28.8535L42.2545 28.7389L42.0621 28.6624H41.8697L41.6773 28.5478L41.4849 28.5096L41.254 28.4713L41.1 28.3567L40.9076 28.3185L40.7152 28.242L40.5228 28.1274L40.3304 28.0892L40.138 28.0128L39.9455 27.9363L39.7531 27.8599L39.5607 27.7834L39.3683 27.707L39.2913 27.6688L39.0989 27.6306L38.868 27.707L38.7141 27.8599L38.5986 28.051V28.2803L38.6756 28.4713L38.791 28.6624L38.9835 28.7389L39.1759 28.8153L39.3683 28.8917L39.5607 28.9299L39.7531 29.0064H39.9455L40.138 29.0828L40.3304 29.1592L40.5228 29.1975L40.7152 29.2357L40.9076 29.3121H41.1385L41.3309 29.3885L41.5234 29.4268L41.7158 29.5032H41.9082L42.1006 29.5796L42.293 29.6178L42.4854 29.6561L42.6778 29.6943L42.9087 29.7325L43.1012 29.7707L43.2936 29.8471L43.486 29.8854H43.6784L43.8708 29.9236L44.0632 30L44.2557 30.0382H44.4866L44.679 30.0764L44.8714 30.1529H45.0638L45.2562 30.1911L45.4486 30.2675H45.641L45.8719 30.3057L46.0644 30.344H46.2568L46.4492 30.4204H46.6416L46.834 30.4586L47.0264 30.535H47.2189L47.4113 30.5733L47.6422 30.6115L47.8346 30.6497L48.027 30.6879H48.2194L48.4118 30.7643L48.6042 30.8026L48.7967 30.8408L49.0276 30.8026L49.22 30.879L49.4124 30.9172L49.6048 30.9554H49.7972H49.9896L50.1821 30.9936L50.413 31.0319L50.6054 31.0701L50.7978 31.1083H50.9902L51.1826 31.1465L51.375 31.1847H51.5674L51.7599 31.2229L51.9908 31.2994H52.1832H52.3756L52.568 31.3376H52.7604L52.9528 31.3758H53.1837L53.3762 31.414L53.5686 31.4905L53.761 31.4522L53.9534 31.5287L54.1458 31.5669L54.3767 31.5287L54.5691 31.5669L54.7616 31.6433H54.954H55.1464L55.3388 31.6815H55.5312L55.7621 31.7198L55.9545 31.758H56.1469H56.3394L56.5318 31.7962L56.7242 31.8726L56.9551 31.8344L57.1475 31.8726L57.3399 31.9108H57.5323L57.7248 31.9491L57.9172 31.9873L58.1096 32.0255L58.3405 32.0637L58.5329 32.0255L58.7253 32.0637L58.9177 32.1019H59.1101L59.3026 32.1401H59.5335L59.7259 32.1784L59.9183 32.2548H60.1107H60.3031L60.4955 32.293H60.7264L60.9189 32.3694L61.1113 32.3312L61.3037 32.3694H61.4961L61.6885 32.4459H61.9194L61.9579 32.4841L62.1888 32.4077L62.3812 32.293L62.4967 32.1019L62.5736 31.8726L62.4582 31.6815L62.3812 31.4522Z" fill="white"/>
<path d="M1.34671 9.13375H1.57761L1.77003 8.94267L1.84699 8.78981L1.88548 8.56051L2.00093 8.40764L2.11638 8.21656L2.23182 8.06369L2.38576 7.91082L2.53969 7.75796L2.69362 7.64331L2.84756 7.52866L3.07845 7.49044L3.27087 7.41401L3.46329 7.37579L3.6557 7.33758H3.84812H4.07902H4.27143L4.46385 7.37579L4.65626 7.41401L4.84868 7.49044H5.07958L5.27199 7.56688L5.46441 7.64331L5.65683 7.68153L5.84924 7.75796L6.04166 7.79617L6.19559 7.91082L6.388 7.98726L6.58042 8.06369L6.77284 8.14012L6.92677 8.25477L7.11918 8.33121L7.3116 8.36942L7.50402 8.48407L7.69643 8.52229L7.88885 8.56051L8.08126 8.59872L8.27368 8.71337H8.46609L8.65851 8.78981L8.85093 8.82802L9.04334 8.86624L9.23576 8.94267L9.42817 8.98089L9.62059 9.01911L9.813 9.05732L10.0054 9.13375H10.2363L10.4287 9.17197L10.6212 9.21019L10.8136 9.28662H11.006H11.1984L11.3908 9.32484L11.5832 9.36305L11.8141 9.40127H12.0065L12.199 9.43949L12.3914 9.51592H12.6223L12.8147 9.55414H13.0071L13.1995 9.63057H13.3919L13.6228 9.66879H13.8153L14.0077 9.707H14.2001L14.431 9.74522L14.6234 9.78344L14.8158 9.82165H15.0082H15.2391L15.4315 9.85987H15.624H15.8164L16.0473 9.89809H16.2397L16.4321 9.9363H16.6245H16.8554H17.0478L17.2403 9.97452L17.4327 9.9363L17.6636 10.0127H17.856L18.0484 9.97452L18.2408 10.051L18.4717 10.0127H18.6641L18.8565 10.051H19.0874L19.2799 10.0892L19.4723 10.051H19.6647L19.8956 10.0892L20.088 10.051L20.2804 10.0892L20.4728 10.051L20.7037 10.0892L20.8962 10.051H21.0886L21.3195 10.0892H21.5119L21.7043 10.051H21.8967L22.1276 10.0892H22.32L22.5124 10.051H22.7049L22.9358 10.0892L23.1282 10.051H23.3206L23.513 10.0892L23.7054 10.051H23.8978L24.1287 10.0127H24.3212L24.5136 9.97452L24.706 10.0127H24.8984L25.0908 9.97452H25.3217H25.5141H25.7065H25.8605L26.0144 10.0892L26.1683 10.1656L26.2838 10.2803L26.4762 10.4331L26.5532 10.6242L26.6686 10.7771L26.7841 10.9682L26.8995 11.1592L26.9765 11.3503L27.0535 11.5032L27.1304 11.6943L27.2459 11.8471L27.3228 12.0382L27.3998 12.2293L27.4383 12.4204L27.5153 12.6115L27.6307 12.7643L27.7077 12.9554L27.7846 13.1465L27.8231 13.3376L27.9001 13.4904L28.0155 13.6815L28.054 13.8726L28.1695 14.0255L28.2464 14.2166L28.3234 14.4459L28.4004 14.5987L28.5158 14.7898L28.6313 14.9427L28.7082 15.172L28.8237 15.3248L28.9006 15.5159L29.0546 15.6688L29.2085 15.8217L29.324 15.9745L29.4779 16.1274L29.6318 16.2803L29.8242 16.3567L29.9782 16.5096L30.1706 16.5478L30.4015 16.6242H30.5939L30.8248 16.6624L31.0172 16.7389H31.2096L31.4405 16.8153H31.6329L31.8254 16.8535L32.0178 16.8153L32.2487 16.8535L32.4411 16.8153L32.6335 16.8535H32.8644L33.0568 16.8153L33.2492 16.7771H33.4801L33.6726 16.7006L33.865 16.6242L34.0574 16.586L34.2498 16.5478L34.4422 16.4713L34.6346 16.3567L34.827 16.3185L35.0195 16.2038L35.2119 16.1274L35.3658 16.0127L35.5582 15.8981L35.7122 15.7834L35.8661 15.6688L36.02 15.5159L36.174 15.4013L36.3664 15.3248L36.4818 15.1338L36.6358 15.0573L36.7897 14.9045L36.9051 14.7516L37.0976 14.6369L37.213 14.4459L37.3669 14.3312L37.5209 14.1783L37.6748 14.0637L37.8287 13.949L37.9827 13.7962L38.1366 13.6433L38.329 13.5669L38.4829 13.4522L38.6754 13.3758L38.8678 13.2994L39.0602 13.2611H39.2526H39.445H39.6759V13.2994L39.9068 13.2611L40.0608 13.0701L40.0223 12.8408L39.8683 12.6879L39.599 12.7261L39.445 12.8025H39.2526L39.0987 12.8408H38.9063L38.7138 12.879L38.5599 12.9554L38.3675 13.0318L38.2136 13.1465L38.0212 13.2611L37.8672 13.3376L37.7133 13.5287L37.5594 13.6433L37.3669 13.758L37.2515 13.9108L37.0976 14.0637L36.9436 14.1783L36.8282 14.3312L36.6742 14.4459L36.5203 14.5605L36.4049 14.7134L36.2124 14.828L36.097 14.9809L35.9431 15.0955L35.7891 15.2102L35.6352 15.3248L35.4813 15.4395L35.3273 15.5541L35.1734 15.6688L34.981 15.7452L34.827 15.8599L34.5961 15.9363L34.4422 16.0127L34.2498 16.0892L34.0574 16.2038H33.865L33.6341 16.2803L33.4417 16.3185L33.2492 16.3567L33.0568 16.4331L32.8644 16.4713L32.6335 16.4331H32.4411H32.2487L32.0563 16.4713L31.8638 16.4331H31.6714L31.479 16.3949L31.2866 16.3567L31.0942 16.3185L30.9018 16.2803L30.6709 16.242L30.4785 16.2038L30.2476 16.1656L30.0551 16.051L29.8627 15.9363L29.7473 15.7834L29.5933 15.6306L29.4779 15.4777L29.4009 15.2866L29.2855 15.1338L29.1315 14.9809L29.0546 14.7898L28.9776 14.5987L28.9006 14.4076L28.7852 14.2166L28.7082 14.0255L28.6313 13.8344L28.5543 13.6433L28.5158 13.4522L28.4388 13.2994L28.3619 13.1083L28.2849 12.9172L28.2464 12.7261L28.1695 12.535L28.0925 12.3439L28.054 12.1529L27.977 11.9618L27.9001 11.8089L27.8231 11.6178L27.7846 11.4267L27.7077 11.2357L27.5922 11.0446L27.4768 10.8535L27.3998 10.6624L27.2844 10.5096L27.2074 10.2803L27.0535 10.1274L26.938 9.97452L26.8226 9.78344L26.6301 9.63057L26.4762 9.51592L26.2838 9.40127L26.0914 9.32484L25.8605 9.2484L25.6296 9.28662H25.4372L25.2832 9.32484L25.0523 9.28662L24.8599 9.32484L24.6675 9.28662L24.4751 9.32484H24.2827L24.0903 9.36305H23.8978L23.7054 9.40127L23.4745 9.36305L23.2821 9.40127L23.0897 9.36305L22.8973 9.40127H22.7049H22.5124L22.32 9.43949L22.0891 9.40127L21.8967 9.43949H21.7043H21.5119L21.281 9.40127L21.0886 9.43949H20.8962L20.7037 9.4777H20.4728H20.2804H20.088L19.8956 9.43949L19.7032 9.4777L19.4723 9.43949H19.2799L19.0874 9.4777L18.895 9.43949H18.6641H18.4717H18.2793L18.0869 9.4777H17.856L17.6636 9.43949H17.4712H17.2787H17.0863H16.8554H16.663H16.4706L16.2782 9.40127H16.0473H15.8549L15.6624 9.36305H15.47L15.2776 9.32484H15.0467H14.8543L14.6619 9.28662H14.4695H14.2386L14.0462 9.2484H13.8537H13.6613L13.4689 9.17197L13.238 9.21019H13.0456L12.8532 9.13375H12.6608H12.4683L12.2374 9.09554H12.045L11.8526 9.05732L11.6602 8.98089H11.4678L11.2369 8.94267L11.0445 8.90445L10.852 8.86624H10.6596L10.4672 8.78981H10.2363L10.0439 8.71337L9.85149 8.67516H9.62059L9.42817 8.63694L9.23576 8.56051H9.04334L8.85093 8.52229L8.65851 8.40764L8.46609 8.36942H8.2352L8.04278 8.29299L7.85036 8.21656L7.65795 8.14012L7.46553 8.10191L7.27312 7.98726L7.0807 7.94904L6.92677 7.83439L6.69587 7.79617L6.54194 7.64331L6.34952 7.56688L6.19559 7.49044L6.00317 7.37579L5.81076 7.29936L5.61834 7.22293L5.42593 7.18471L5.23351 7.07006L5.04109 7.03184L4.8102 6.95541L4.61778 6.91719L4.42536 6.84076L4.23295 6.80254H4.00205H3.80963H3.57874L3.38632 6.76433L3.1939 6.80254L3.00149 6.87898L2.80907 6.91719L2.61666 6.99363L2.46272 7.10828L2.27031 7.18471L2.11638 7.33758L1.96244 7.45223L1.80851 7.60509L1.69306 7.79617L1.57761 7.94904L1.50065 8.14012L1.3852 8.33121L1.30823 8.52229L1.19278 8.71337V8.75159L1.1543 8.98089L1.34671 9.13375Z" fill="white"/>
<path d="M38.6756 17.9236L38.714 17.6943L38.7525 17.5032L38.791 17.3121L38.9065 17.121L38.9449 16.9299L38.9834 16.7389L39.0604 16.5478L39.0989 16.3567L39.1374 16.1656L39.2528 15.9745L39.2913 15.7834L39.3683 15.5924L39.4067 15.4013L39.4837 15.2102L39.5607 15.0191V14.828L39.6376 14.637L39.7146 14.4459L39.7916 14.2548V14.1784V14.0255L39.7146 13.8726L39.5992 13.7198L39.4452 13.6433H39.2528L39.0989 13.758L38.9834 13.8726L38.9449 14.0255L38.9065 14.2166L38.8295 14.4077L38.791 14.5987L38.7525 14.7898L38.714 15.0191L38.6756 15.2102L38.6371 15.4013L38.5986 15.5924L38.5601 15.7834L38.5216 15.9745L38.4447 16.2038L38.3677 16.3567V16.586L38.3292 16.7771L38.2907 16.9682L38.2138 17.1592L38.1753 17.3503L38.1368 17.5414L38.0983 17.7707L38.0598 17.9618L37.9829 18.1529L37.9059 18.344V18.535L37.8289 18.7261L37.752 18.9172V19.1083L37.7135 19.3376L37.6365 19.4905L37.598 19.7198L37.5596 19.9108L37.5211 20.1019L37.4056 20.293V20.4841L37.3287 20.6752L37.2517 20.8662V21.0573L37.1747 21.2484L37.1362 21.4777L37.0978 21.6688L37.0208 21.8599L36.9823 22.051L36.9053 22.242V22.4331L36.7899 22.6242V22.8153L36.6744 23.0064L36.636 23.1975V23.3885L36.559 23.5796L36.482 23.7707L36.4435 24L36.3666 24.1529L36.3281 24.344L36.2896 24.535L36.2126 24.7261L36.1357 24.879L36.0972 25.0701L36.0587 25.2612L35.9817 25.4522L35.9048 25.6051V25.8344L35.7893 26.0255L35.7508 26.2166L35.7124 26.4459L35.6354 26.6369L35.5969 26.7516L35.443 26.6752L35.2506 26.6369L35.0581 26.5605H34.8272L34.6348 26.4459L34.4424 26.4077L34.25 26.3694L34.0576 26.2548L33.8652 26.2166L33.6728 26.1784L33.4803 26.1401L33.2879 26.0255L33.0955 25.9491H32.8646L32.6722 25.8726L32.4798 25.7962L32.2874 25.7198L32.1334 25.6051L31.9025 25.5669L31.7101 25.4905L31.5177 25.4522L31.3638 25.3376L31.1329 25.2994L30.9405 25.2229L30.748 25.1465L30.5556 25.1083L30.3632 25.0319L30.1708 24.9936L29.9784 24.879L29.786 24.8408L29.5935 24.7643L29.4011 24.6879L29.2087 24.6115L29.0163 24.5733L28.8239 24.4968L28.6315 24.4204L28.439 24.344L28.2466 24.3057L28.0542 24.2293L27.8618 24.1529L27.6694 24.0764L27.477 24.0382L27.2846 23.9618L27.0921 23.8471L26.8997 23.7707H26.7073L26.5149 23.6943L26.3225 23.6178L26.1301 23.5414L25.9376 23.5032L25.7837 23.3885L25.5528 23.3503L25.3989 23.2739L25.168 23.2357L25.014 23.121L24.8216 23.0828L24.6292 22.9682L24.4368 22.9299L24.2444 22.8917L24.052 22.7771L23.898 22.7389L23.7056 22.6624L23.5132 22.586L23.3208 22.5096L23.1284 22.4331L22.936 22.3949L22.782 22.2803L22.5896 22.2038L22.3972 22.1656L22.2048 22.0892L22.0124 22.0127L21.8199 21.9363L21.6275 21.8981L21.4351 21.7834L21.2812 21.707L21.0888 21.6306L20.8963 21.5924L20.7039 21.4777L20.5115 21.4395L20.3576 21.3631L20.1652 21.2484L19.9728 21.2102L19.7803 21.1338L19.5879 21.0573L19.434 20.9427L19.2416 20.9045L19.0492 20.828L18.8567 20.7516L18.6643 20.6752L18.4719 20.5987L18.2795 20.5223L18.0871 20.4841L17.9331 20.4077L17.7407 20.293L17.5483 20.2166L17.3944 20.1019L17.202 20.0637L17.0096 19.9873L16.8171 19.9108L16.6632 19.7962L16.4708 19.7198L16.2784 19.6433L16.086 19.5669L15.932 19.4905L15.7396 19.414L15.5472 19.3376L15.3548 19.2229L15.2008 19.1465L15.0084 19.0701L14.816 18.9936L14.6236 18.9172L14.4697 18.8408L14.2772 18.7261L14.0848 18.6497L13.8924 18.6115L13.7385 18.4586L13.5461 18.4204L13.3537 18.344L13.1997 18.2293L13.0073 18.1529L12.8149 18.0764L12.661 18L12.4685 17.8854L12.2761 17.8089L12.1222 17.6943L11.9298 17.6561L11.7374 17.5414L11.5834 17.465L11.391 17.3503L11.2371 17.2739L11.0447 17.1592L10.8522 17.0828L10.6598 17.0064L10.5059 16.8917L10.3135 16.8153L10.1596 16.7006L9.96713 16.6624L9.8132 16.5096L9.62079 16.4331L9.42837 16.3567L9.27444 16.242L9.08202 16.1274L8.88961 16.0892L8.73567 15.9745L8.54326 15.8599L8.38933 15.7452L8.19691 15.6688L8.04298 15.5541L7.85056 15.4395L7.65815 15.3631L7.50421 15.2484L7.3118 15.172L7.15787 15.0573L6.96545 14.9809L6.77303 14.8663L6.6191 14.7516L6.42669 14.6752L6.27275 14.5605L6.08034 14.4459L5.9264 14.293L5.73399 14.2548L5.58006 14.1401L5.38764 13.9873L5.23371 13.9108L5.07978 13.7962L4.88736 13.7198L4.73343 13.5669L4.54101 13.4522L4.38708 13.3376L4.19466 13.2612L4.04073 13.1083L3.8868 12.9936L3.69438 12.9172L3.54045 12.7643L3.38652 12.6497L3.1941 12.5733L3.04017 12.4204L2.88624 12.3057L2.69382 12.1911L2.53989 12.0764L2.38595 11.9618L2.19354 11.8471L2.07809 11.6943L1.88567 11.5796L1.73174 11.465L1.57781 11.3503L1.42388 11.1975L1.26994 11.0828L1.07753 10.9682L0.923596 10.8535L0.808146 10.6624L0.61573 10.586L0.461798 10.4331L0.346348 10.242L0.269382 10.0127L0.230899 9.82166L0.269382 9.59236L0.384831 9.40128L0.538764 9.32485L0.654213 9.17198L0.808146 9.09555V9.13377H0.846629L1.00056 9.24842L1.15449 9.36307L1.30843 9.4395L1.42388 9.59236L1.57781 9.70701L1.73174 9.82166L1.88567 9.97453L2.03961 10.0892L2.23202 10.2038L2.38595 10.3185L2.53989 10.4331L2.69382 10.5478L2.88624 10.6242L3.00169 10.7771L3.1941 10.8535L3.34803 11.0064L3.54045 11.0828L3.69438 11.1975L3.84831 11.3121L4.04073 11.4268L4.19466 11.5032L4.3486 11.6561L4.50253 11.7707L4.69494 11.8471L4.84888 12L5.04129 12.0764L5.19522 12.1529L5.34916 12.3057L5.54157 12.4204L5.69551 12.535L5.88792 12.6115L6.04185 12.6879L6.19579 12.8408L6.3882 12.9172L6.54213 12.9936L6.73455 13.1083L6.88848 13.2229L7.0809 13.2994L7.23483 13.414L7.42725 13.4905L7.58118 13.6433L7.7736 13.6815L7.96601 13.7962L8.11994 13.9108L8.27388 14.0255L8.46629 14.0637L8.65871 14.1784L8.81264 14.293L9.00506 14.3694L8.96657 14.4077L9.23596 14.3312L9.15899 14.0255L8.96657 13.9873L8.81264 13.9108L8.62022 13.7962L8.42781 13.7198L8.27388 13.6051L8.08146 13.5287L7.92753 13.4522L7.73511 13.3376L7.58118 13.2229L7.42725 13.1083L7.23483 13.0319L7.0809 12.9172L6.88848 12.8408L6.69607 12.7261L6.54213 12.6497L6.3882 12.535L6.19579 12.4586L6.00337 12.344L5.84944 12.2675L5.69551 12.1529L5.50309 12.0382L5.34916 11.9236L5.15674 11.8854L5.00281 11.7707L4.84888 11.6178L4.69494 11.5032L4.50253 11.4268L4.31011 11.3503L4.15618 11.2357L4.00225 11.121L3.80983 11.0064L3.6559 10.8917L3.50197 10.8153L3.34803 10.6624L3.15562 10.586L3.00169 10.4713L2.84775 10.3185L2.69382 10.2038L2.5014 10.1274L2.34747 10.0127L2.19354 9.85988L2.03961 9.74523L1.88567 9.63058L1.73174 9.51593L1.57781 9.40128L1.42388 9.28663L1.26994 9.17198L1.15449 9.01912L0.962079 8.94268L0.885112 8.82803L0.692697 8.90447L0.538764 8.9809L0.384831 9.13377L0.230899 9.28663L0.0769663 9.4395L0.0384831 9.63058L0 9.85988L0.0384831 10.051V10.242L0.192416 10.4331L0.269382 10.6242L0.423315 10.7771L0.538764 10.9299L0.692697 11.0446L0.846629 11.1975L1.00056 11.3121L1.15449 11.465L1.30843 11.5796L1.50084 11.6561L1.65478 11.8089L1.77022 11.9618L1.92416 12.0764L2.11657 12.1529L2.27051 12.3057L2.42444 12.4204L2.57837 12.5733L2.77079 12.6879L2.92472 12.8026L3.07865 12.879L3.27107 12.9936L3.425 13.1083L3.57893 13.2229L3.73287 13.3758L3.92528 13.4522L4.07921 13.6051L4.23315 13.6815L4.42556 13.7962L4.57949 13.9491L4.77191 14.0255L4.92584 14.1401L5.07978 14.2548L5.27219 14.3312L5.42612 14.4841L5.58006 14.5987L5.77247 14.6752L5.9264 14.7898L6.11882 14.8663L6.27275 15.0191L6.42669 15.0955L6.6191 15.2102L6.77303 15.3248L6.96545 15.4395L7.15787 15.5159L7.3118 15.6306L7.46573 15.7452L7.65815 15.8217L7.85056 15.8981L8.00449 16.0127L8.19691 16.1274L8.35084 16.2038L8.54326 16.3185L8.69719 16.4331L8.88961 16.5478L9.04354 16.6242L9.23596 16.7006L9.42837 16.8153L9.5823 16.8917L9.77472 17.0064L9.92865 17.121L10.1211 17.1592L10.3135 17.2739L10.4674 17.3885L10.6598 17.465L10.8138 17.5796L11.0062 17.6561L11.1986 17.7325L11.391 17.8089L11.5449 17.9236L11.7374 18L11.8913 18.1147L12.0837 18.1911L12.2761 18.2675L12.4301 18.3822L12.6225 18.4586L12.8149 18.5733L12.9688 18.6497L13.1612 18.7261L13.3152 18.8408L13.5461 18.879L13.7 18.9936L13.8924 19.1083L14.0463 19.1847L14.2772 19.2229L14.4312 19.3758L14.5851 19.4522L14.7775 19.5287L14.9699 19.6051L15.1624 19.6433L15.3548 19.758L15.5087 19.8344L15.7011 19.9491L15.8935 20.0255L16.086 20.1019L16.2399 20.1784L16.4323 20.2548L16.6247 20.3312L16.8171 20.4459L16.9711 20.5223L17.1635 20.5987L17.3559 20.6752L17.5483 20.7516L17.7407 20.828L17.8947 20.9045L18.0871 20.9809L18.2795 21.0573L18.4719 21.172L18.6643 21.2102L18.8183 21.3248L19.0107 21.4013L19.2031 21.4395L19.3955 21.5159L19.5494 21.6306L19.7419 21.707L19.9728 21.7452L20.1267 21.8217L20.3191 21.8981L20.5115 21.9745L20.6654 22.0892L20.8579 22.1274L21.0888 22.2038L21.2427 22.2803L21.4351 22.3949L21.6275 22.4331L21.8199 22.5096L22.0124 22.586L22.2048 22.6624L22.3587 22.7389L22.5511 22.8153L22.7435 22.8917L22.936 22.9682L23.1284 23.0064L23.3208 23.0828L23.4747 23.1592L23.6671 23.2357L23.8596 23.3121L24.052 23.3503L24.2444 23.465L24.4368 23.5414L24.6292 23.6178L24.8216 23.6561L24.9756 23.7325L25.168 23.8089L25.3604 23.8854L25.5528 23.9236L25.7452 24.0382L25.9376 24.0764L26.1301 24.1529L26.3225 24.2293L26.4764 24.3057L26.7073 24.3822L26.8997 24.4204L27.0921 24.4968L27.2461 24.6115H27.477L27.6309 24.7261L27.8618 24.7643L28.0157 24.879L28.2081 24.9554L28.4006 25.0319L28.593 25.1083L28.8239 25.1465L28.9778 25.2612L29.1702 25.2994L29.4011 25.3758L29.5551 25.4522L29.7475 25.5287L29.9399 25.6051L30.1323 25.6433L30.3247 25.7198L30.5171 25.7962L30.748 25.8344L30.902 25.9491L31.0944 26.0255L31.2868 26.0637L31.4792 26.1784L31.6716 26.2166L31.864 26.293L32.0565 26.3694L32.2489 26.4459L32.4413 26.5223L32.6337 26.5987L32.8261 26.6369L33.0185 26.7134L33.211 26.828L33.4034 26.8663L33.5958 26.9809L33.7882 27.0191L33.9806 27.0956L34.173 27.172L34.3655 27.2484L34.5579 27.3631L34.7118 27.4395L34.9042 27.5159L35.0966 27.6306L35.289 27.707L35.443 27.8217L35.6354 27.8981L35.8663 27.8599L36.0587 27.7834L36.2896 27.707L36.3666 27.5159L36.3281 27.2866L36.3666 27.0573L36.3281 26.828L36.4051 26.6369L36.482 26.4077V26.2166L36.559 25.9873L36.5975 25.7962L36.636 25.6051L36.6744 25.414L36.7514 25.2229L36.7899 25.0701L36.8284 24.879L36.9053 24.6879V24.4968L36.9438 24.3057L37.0208 24.1147V23.9236L37.1362 23.7325L37.1747 23.5414V23.3503L37.2132 23.1592L37.2902 22.9682L37.3287 22.7389L37.3671 22.5478L37.4441 22.3949L37.5211 22.1656V21.9745L37.598 21.7834L37.6365 21.5924L37.7135 21.4013L37.752 21.2102L37.8289 21.0191V20.828L37.9059 20.637L37.9444 20.4077L38.0214 20.2166L38.0598 20.0255L38.1368 19.8344L38.1753 19.6433L38.2522 19.4522L38.2907 19.2612L38.3292 19.0701L38.4062 18.879L38.4447 18.6879L38.4831 18.4968L38.5216 18.2675L38.5986 18.1147L38.6756 17.9236Z" fill="white"/>
<path d="M39.0988 11.6561L39.2528 11.6943L39.4452 11.7325L39.5606 11.6178L39.6761 11.5032L39.7146 11.3121L39.7915 11.121L39.83 10.9299L39.907 10.7771L39.984 10.586V10.3949L40.0994 10.2038L40.1379 10.051L40.2149 9.85988L40.2533 9.66879L40.3303 9.51593L40.4073 9.32484L40.4458 9.13376L40.4842 8.94268L40.5612 8.78981L40.6767 8.59873L40.7151 8.40765L40.7536 8.21656L40.8691 8.02548L40.9076 7.8344L40.9845 7.64332L41.1 7.49045L41.1385 7.26115L41.2154 7.10828L41.2924 6.9172L41.3694 6.72612L41.4463 6.53504L41.4848 6.30574L41.5618 6.15287L41.6387 5.96179L41.7542 5.7707L41.7927 5.73249V5.50319L41.6772 5.35032L41.5233 5.23567H41.2924L41.1385 5.35032L41.023 5.50319L40.9845 5.73249L40.946 5.92357L40.8306 6.07644V6.30574L40.7536 6.49682L40.6767 6.6879L40.6382 6.87898L40.5612 7.07007L40.4842 7.26115L40.4458 7.45223L40.3688 7.64332L40.2918 7.8344L40.2149 8.02548L40.1764 8.21656L40.0994 8.40765L40.0609 8.59873L39.984 8.78981L39.907 8.94268L39.8685 9.13376L39.7531 9.28663L39.6761 9.47771V9.66879L39.5991 9.85988L39.5222 10.0127L39.4837 10.2038L39.4067 10.3949L39.2913 10.5478L39.2143 10.7389V10.9299L39.0988 11.0828L39.0604 11.2739L38.9834 11.3121L39.0219 11.465L39.0988 11.6561Z" fill="white"/>
<path d="M29.7475 8.25478L29.9399 8.29299L30.0938 8.17834L30.2863 8.06369L30.4402 7.98726L30.5941 7.83439L30.7096 7.68153L30.8635 7.52866L30.979 7.3758L31.1329 7.26115L31.2483 7.07006L31.3638 6.95541L31.4792 6.76433L31.5947 6.61146L31.6717 6.42038L31.7871 6.26752L31.8641 6.07643L31.941 5.88535L32.018 5.73248L32.095 5.5414L32.1335 5.35032L32.1719 5.15924L32.2489 4.96815L32.2874 4.77707L32.3259 4.58599V4.3949L32.4028 4.20382L32.4413 4.01274V3.82166V3.63057V3.43949L32.5183 3.24841V3.05732L32.4798 2.86624L32.5183 2.67516L32.4798 2.48408V2.29299L32.5183 2.10191L32.4798 1.91083V1.71975V1.52866L32.4413 1.33758V1.1465L32.4028 0.955414L32.3644 0.764331L32.3259 0.573248V0.382166V0.305732L32.1719 0.152866L32.018 0L31.7871 0.0382166L31.5947 0.152866L31.4792 0.343949V0.573248V0.611465L31.5562 0.802548L31.6332 0.955414L31.6717 1.1465L31.7101 1.3758L31.7486 1.56688L31.7871 1.75796L31.8256 1.94904L31.8641 2.14013L31.9026 2.33121V2.52229V2.71338V2.94267L31.941 3.13376L31.9026 3.32484L31.941 3.51592L31.8641 3.70701V3.89809V4.12739L31.8256 4.31847L31.7871 4.50955V4.70064L31.7101 4.89172L31.6717 5.0828L31.6332 5.27389L31.5177 5.42675V5.61783L31.4408 5.80892L31.2868 5.96178L31.2483 6.15287L31.1329 6.34395L31.0174 6.49681L30.902 6.6879L30.7481 6.84076L30.5941 6.95541L30.4402 7.10828L30.2863 7.26115L30.0938 7.33758L29.9014 7.49045L29.7475 7.60509L29.709 7.56688L29.6705 7.64331L29.5166 7.75796V7.98726L29.6321 8.14013L29.7475 8.25478Z" fill="white"/>
<path d="M136.961 14.9427L136.923 14.7516V14.5605L136.846 14.3694L136.769 14.1783L136.654 14.0255L136.577 13.8344L136.423 13.7197L136.307 13.5669L136.153 13.414L135.999 13.2611L135.807 13.1847L135.614 13.1083L135.422 13.0318L135.23 12.9554H135.037H134.845L134.652 12.9172L134.46 12.9554H134.268H134.075L133.883 12.9936L133.69 13.0701L133.498 13.1465L133.306 13.1847L133.113 13.2611L132.921 13.2994L132.767 13.414L132.613 13.5287L132.42 13.6051L132.228 13.6815L132.074 13.7962L131.92 13.9108L131.766 14.0255L131.612 14.1783L131.458 14.293L131.343 14.4459L131.15 14.5605L131.035 14.7134L130.92 14.8662L130.804 15.0191L130.65 15.1338L130.535 15.2866L130.419 15.4395L130.342 15.6306L130.227 15.7834L130.111 15.9363L129.996 16.0892L129.881 16.242L129.804 16.4331L129.688 16.586L129.573 16.7388L129.457 16.8917L129.342 17.0446L129.265 17.2357L129.149 17.3885L129.072 17.5796L128.957 17.7325L128.841 17.8853L128.764 18.0764L128.688 18.2675L128.611 18.4586L128.495 18.6115L128.418 18.8025L128.303 18.9936L128.226 19.1847L128.149 19.3758L128.033 19.5669L127.956 19.758L127.841 19.949L127.802 20.1401L127.687 20.293L127.61 20.4841L127.533 20.6752L127.495 20.8662L127.418 21.0573L127.302 21.2102L127.264 21.4013L127.148 21.5923L127.071 21.7834L126.956 21.9745L126.917 22.1656V22.2038L126.802 22.242L126.609 22.3185L126.417 22.3949L126.225 22.4713L126.032 22.5095L125.84 22.586L125.647 22.6242L125.455 22.7006L125.263 22.7388L125.07 22.8153L124.878 22.8917L124.685 22.9299L124.493 22.9681L124.3 23.0064L124.108 23.0446L123.916 23.121H123.723L123.531 23.1592L123.338 23.2357H123.146L122.954 23.2739L122.761 23.3121L122.569 23.3503L122.376 23.4267L122.184 23.465H121.991L121.799 23.5414L121.607 23.5796H121.414L121.222 23.656L121.029 23.6943H120.837L120.645 23.7325H120.452L120.26 23.6943H120.067L119.875 23.7325L119.682 23.6943H119.49H119.298L119.105 23.656H118.913L118.72 23.5796L118.528 23.5414L118.336 23.5796L118.143 23.5414L117.951 23.465H117.758L117.566 23.3885L117.373 23.3121L117.181 23.2739L116.989 23.2357L116.796 23.1592L116.604 23.0828L116.411 22.9681L116.219 22.9299H115.834L115.642 22.8535L115.488 22.7388L115.295 22.6624L115.141 22.5095L114.949 22.3949L114.795 22.2802L114.641 22.1274L114.487 22.0127L114.333 21.8599L114.179 21.7452L114.064 21.5923L113.91 21.4395L113.795 21.2866L113.641 21.1337L113.525 20.9427L113.41 20.7898L113.294 20.6369L113.179 20.4459L113.14 20.2548L113.102 20.0637L113.025 19.8726L112.909 19.7197L112.871 19.5287L112.794 19.3376L112.717 19.1465V18.9554L112.64 18.7643L112.602 18.5732L112.563 18.3822L112.525 18.1911V18L112.486 17.8089V17.6178V17.4267L112.525 17.2357V17.1592V17.0064L112.486 16.8153L112.371 16.6624L112.178 16.5478L112.024 16.4331L111.832 16.3949H111.639L111.447 16.4713L111.255 16.586L111.101 16.7388L111.024 16.9299L110.947 17.121L110.985 17.3121L111.024 17.5032L111.062 17.6943L111.101 17.8853L111.178 18.0764L111.255 18.2675L111.293 18.4586L111.332 18.6497L111.409 18.8408L111.486 19.0318L111.563 19.2229L111.678 19.3758L111.716 19.5669L111.793 19.758L111.909 19.9108L112.024 20.1019L112.101 20.293L112.178 20.4841L112.294 20.6369L112.409 20.7898L112.525 20.9427L112.64 21.0955L112.794 21.2484L112.909 21.4013L113.063 21.5541L113.179 21.707L113.294 21.8599L113.41 22.0127L113.525 22.1656L113.679 22.2802L113.833 22.3949L113.987 22.5095L114.102 22.6624L114.256 22.7771L114.41 22.8917L114.564 23.0064L114.718 23.121L114.911 23.1974L115.064 23.3121L115.218 23.4267L115.411 23.5414L115.603 23.6178L115.796 23.6943L115.988 23.7707L116.18 23.8471L116.373 23.9236L116.565 24L116.758 24.0382L116.95 24.1146L117.143 24.1529L117.335 24.1911L117.527 24.2675L117.72 24.3057L117.912 24.3439H118.105L118.297 24.3822H118.489L118.682 24.4204H118.874H119.067H119.259L119.452 24.4586H119.644H119.836H120.029L120.221 24.4204L120.414 24.4586L120.606 24.4204L120.798 24.4586L120.991 24.3822L121.183 24.4204L121.376 24.3822L121.568 24.3439L121.761 24.3057H121.953L122.145 24.2293L122.338 24.1911H122.53L122.723 24.1529L122.915 24.1146H123.107L123.3 24.0764L123.492 24L123.685 23.9618L123.877 23.9236L124.07 23.8471L124.262 23.7707L124.454 23.7325L124.647 23.6943L124.839 23.6178L125.032 23.5796L125.224 23.5414L125.416 23.5032L125.609 23.3885L125.801 23.3121L125.994 23.2739L126.186 23.1974L126.379 23.1592L126.417 23.121L126.379 23.2739L126.302 23.465L126.263 23.656L126.225 23.8471L126.148 24.0382L126.071 24.2293L125.994 24.4204V24.6115L125.878 24.8025L125.84 24.9936L125.763 25.1847L125.724 25.3758L125.647 25.5669L125.609 25.758L125.57 25.949V25.9873V26.1783L125.532 26.3694L125.647 26.5223L125.84 26.7516L126.032 26.8662L126.225 26.9045L126.417 26.9809L126.609 26.9045L126.802 26.828L126.956 26.7134L127.071 26.5605L127.148 26.4076L127.187 26.2166L127.264 26.0255V25.8344L127.341 25.6433L127.379 25.4522L127.418 25.2611L127.495 25.0701L127.533 24.879L127.572 24.6879L127.648 24.4968L127.687 24.3057L127.764 24.1146L127.802 23.9236L127.879 23.7325L127.956 23.5414L127.995 23.3503L128.072 23.1592L128.149 22.9681L128.226 22.7771L128.303 22.6624L128.457 22.586L128.649 22.4713L128.841 22.3949L129.034 22.3567L129.226 22.242L129.419 22.1656L129.611 22.0892L129.804 22.0127L129.996 21.9745L130.188 21.8981L130.381 21.7834L130.535 21.6688L130.727 21.6306L130.881 21.5159L131.073 21.4013L131.266 21.2866L131.458 21.2484L131.612 21.1337L131.766 21.0191L131.959 20.9427L132.151 20.828L132.305 20.7134L132.497 20.5987L132.69 20.4841L132.882 20.4076L133.036 20.2548L133.229 20.1401L133.382 20.0255L133.575 19.949L133.729 19.7962L133.883 19.6815L134.037 19.5287L134.229 19.414L134.383 19.2994L134.537 19.1847L134.729 19.0701L134.883 18.9172L135.037 18.7643L135.191 18.6497L135.345 18.4968L135.499 18.3439L135.614 18.1911L135.768 18.0764L135.884 17.8853L136.038 17.7325L136.153 17.5414L136.269 17.3885L136.384 17.2357L136.5 17.0446L136.577 16.8535L136.731 16.7006L136.807 16.5095L136.846 16.3185L136.961 16.1274L137 15.9363L137.038 15.7452L137.115 15.5541L137.154 15.3631L137.192 15.172L136.961 14.9427ZM136.076 15.2866L135.999 15.4777V15.6688L135.922 15.8599L135.845 16.0509L135.768 16.242L135.691 16.4331L135.576 16.6242L135.461 16.8153L135.345 16.9681L135.23 17.1592L135.114 17.3121L134.96 17.465L134.845 17.6178L134.691 17.7325L134.575 17.9236L134.422 18.0382L134.268 18.1529L134.114 18.3057L133.96 18.4586L133.806 18.5732L133.652 18.7261L133.459 18.8408L133.306 18.9936L133.113 19.1083L132.959 19.2611L132.767 19.3376L132.613 19.4904L132.42 19.5669L132.266 19.6815L132.113 19.7962L131.959 19.9108L131.766 19.9873L131.612 20.1401L131.42 20.2166L131.266 20.3312L131.073 20.4076L130.92 20.5223L130.727 20.5987L130.535 20.6752L130.381 20.7898L130.188 20.8662L130.034 20.9809L129.842 21.0573L129.65 21.1337L129.457 21.2102L129.265 21.2866L129.072 21.3631L128.88 21.4777L128.688 21.5541L128.572 21.6306V21.5923L128.611 21.4013L128.688 21.2102L128.803 21.0191L128.841 20.828L128.918 20.6369L128.995 20.4459L129.034 20.2548L129.111 20.0637L129.303 19.8726L129.342 19.6815L129.457 19.4904L129.496 19.2994L129.573 19.1083L129.688 18.9172L129.765 18.7261L129.881 18.535L129.957 18.3439L130.034 18.1529L130.15 18L130.188 17.8089L130.304 17.656L130.419 17.465L130.535 17.2739L130.573 17.0828L130.727 16.9299L130.843 16.8153L130.958 16.6242L131.073 16.4713L131.15 16.2802L131.266 16.1274L131.42 15.9745L131.535 15.8216L131.651 15.6688L131.766 15.5159L131.92 15.3631L132.074 15.2102L132.228 15.0573L132.382 14.9427L132.536 14.828L132.69 14.6752L132.844 14.5605L132.998 14.4459L133.152 14.3312L133.344 14.2548L133.536 14.1401L133.729 14.0637L133.921 14.0255L134.114 13.949H134.306L134.498 13.9108L134.691 13.8726H134.883L135.076 13.949L135.268 14.0255L135.461 14.0637L135.614 14.2166L135.768 14.3694L135.884 14.5223L135.961 14.7134L136.038 14.9045L136.076 15.0955V15.2866Z" fill="white"/>
<path d="M117.412 14.6752L117.489 14.8662L117.681 15.0191L117.874 15.0573L118.105 15.0191L118.297 14.9045L118.451 14.7516L118.489 14.5223L118.528 14.3312V14.1401L118.566 13.949L118.528 13.758L118.605 13.5669V13.3376L118.643 13.1465L118.682 12.9554L118.72 12.7643V12.5732V12.3822L118.759 12.1529L118.797 11.9618L118.836 11.7707V11.5796L118.874 11.3885L118.913 11.1974V10.9682L118.951 10.7771V10.586L119.067 10.3949V10.2038V10.0127L119.144 9.82165V9.63057V9.40127L119.221 9.21019L119.259 9.01911L119.298 8.82802L119.336 8.63694L119.375 8.44586L119.413 8.25477V8.06369L119.452 7.83439L119.49 7.64331L119.567 7.45223V7.37579L119.529 7.14649L119.452 6.95541L119.259 6.84076L119.028 6.76433L118.836 6.80254L118.643 6.91719L118.489 7.10828L118.451 7.29936L118.412 7.49044V7.68153V7.91083L118.336 8.10191L118.374 8.29299L118.297 8.48407V8.67516V8.86624L118.22 9.09554V9.28662L118.182 9.4777L118.143 9.66879V9.85987V10.051L118.066 10.242V10.4713V10.6624L117.989 10.8535V11.0446L117.951 11.2357L117.912 11.4267V11.656L117.874 11.8471L117.797 12.0382L117.758 12.2293V12.4204L117.681 12.6115V12.8025L117.643 12.9936L117.604 13.1847V13.414L117.489 13.6051L117.45 13.7962L117.489 13.9873L117.412 14.1783L117.335 14.3694L117.373 14.4459L117.412 14.6752Z" fill="white"/>
<path d="M123.531 14.6752L123.608 14.8662L123.8 15.0191L124.031 15.0573L124.223 15.0191L124.416 14.9045L124.57 14.7516L124.608 14.5223L124.647 14.3312V14.1401L124.685 13.949V13.758L124.724 13.5669V13.3376L124.762 13.1465L124.801 12.9554L124.839 12.7643L124.878 12.5732V12.3822L124.916 12.1529V11.9618L124.955 11.7707V11.5796L125.032 11.3885V11.1974V10.9682L125.07 10.7771L125.108 10.586L125.185 10.3949V10.2038V10.0127L125.262 9.82165V9.63057L125.301 9.40127L125.378 9.21019V9.01911L125.416 8.82802L125.455 8.63694L125.493 8.44586L125.532 8.25477V8.06369L125.57 7.83439L125.609 7.64331L125.686 7.45223V7.37579L125.647 7.14649L125.57 6.95541L125.378 6.84076L125.185 6.76433L124.955 6.80254L124.762 6.91719L124.647 7.10828L124.57 7.29936V7.49044L124.531 7.68153V7.91083L124.493 8.10191V8.29299L124.416 8.48407V8.67516V8.86624L124.339 9.09554V9.28662V9.4777L124.3 9.66879V9.85987L124.262 10.051L124.185 10.242L124.223 10.4713L124.185 10.6624L124.108 10.8535V11.0446V11.2357L124.031 11.4267V11.656L123.992 11.8471L123.916 12.0382V12.2293L123.877 12.4204L123.839 12.6115L123.8 12.8025V12.9936L123.723 13.1847V13.414L123.646 13.6051L123.608 13.7962V13.9873L123.569 14.1783L123.492 14.3694L123.531 14.4459V14.6752Z" fill="white"/>
<path d="M27.0538 8.90445L27.2463 8.98088L27.4387 8.94267L27.6311 8.86623L27.862 8.90445L28.0544 8.86623L28.2468 8.98088L28.4392 9.05732L28.6316 9.13375L28.7471 9.28662L28.901 9.43948L29.0165 9.59235L29.1319 9.78343L29.2474 9.9363L29.2859 10.1274L29.3243 10.3567L29.4398 10.5095L29.4783 10.7006V10.9299L29.5168 11.121L29.5552 11.3121V11.5032L29.5937 11.7325V11.9236V12.1146V12.3439V12.535L29.5552 12.7261V12.9554V13.1465L29.5168 13.3376V13.5669L29.4398 13.758V13.949V14.1401V14.1783H29.4013L29.4783 14.3694L29.5937 14.5223L29.7861 14.5987L29.9785 14.5605L30.094 14.4076L30.171 14.2548V14.0255L30.2094 13.8344V13.6433L30.2479 13.414L30.2094 13.2229L30.2479 13.0318L30.2094 12.8025L30.2479 12.6115V12.4204V12.1911V12V11.8089V11.5796L30.171 11.3885V11.1974L30.1325 10.9681V10.7771L30.0555 10.586L30.017 10.3949L29.9785 10.2038L29.9016 10.0127L29.8246 9.85987L29.7477 9.66878L29.6707 9.4777L29.5937 9.32483L29.4398 9.17197L29.3243 8.98088L29.1704 8.86623L29.0165 8.75158L28.901 8.59872L28.7471 8.52229L28.5547 8.44585L28.4007 8.3312L28.2083 8.29299L28.0159 8.25477H27.8235H27.6311H27.4387L27.2463 8.21655L27.0923 8.25477L26.9384 8.40764L26.8999 8.59872L26.9384 8.7898L27.0538 8.90445Z" fill="white"/>
<path d="M108.638 21.8981C108.599 21.9363 108.099 22.3567 107.83 22.586C107.291 23.121 106.406 23.8471 105.675 24.1147C105.444 24.1911 105.097 24.2293 104.828 24.0764C104.982 23.3885 106.021 22.3567 106.406 21.8599C106.829 21.3631 107.175 20.828 107.599 20.293C107.676 20.1401 107.753 20.0637 107.753 19.949C107.753 19.8726 107.791 19.9108 107.83 19.8726C107.945 19.6815 108.022 19.0701 107.676 19.1083C107.56 18.879 107.291 19.1847 107.214 19.2612C107.098 19.4522 106.983 19.6051 106.829 19.7197C106.714 19.8726 106.521 19.949 106.521 20.1783C106.29 20.293 106.175 20.5605 106.059 20.7516C105.598 21.3631 104.635 22.4713 104.289 23.1592C103.904 23.3503 103.596 23.6943 103.289 23.9618C102.904 24.2293 102.519 24.4586 102.173 24.7643C101.518 24.9936 100.864 25.6433 100.056 25.4522C99.9405 24.7643 100.479 24.5733 100.556 24.0764C100.787 23.9618 101.518 22.7006 101.672 22.4713C101.865 22.2803 102.134 22.0127 102.211 21.707C102.596 21.2866 103.058 20.9809 103.019 20.2548C102.827 20.1783 102.75 19.949 102.403 20.1019C102.173 20.1019 102.173 20.3312 102.096 20.4841C102.057 20.6752 101.21 21.5159 101.249 21.7452C101.172 21.8217 100.98 22.051 100.749 22.3949C100.518 22.6242 100.287 22.8153 99.979 23.0446C98.9399 24.1529 96.8619 25.7197 95.3225 25.8726C94.8992 25.9108 94.168 25.5669 94.1296 24.8408C94.168 24.1147 95.0532 23.9236 95.5534 23.7325C96.0922 23.5032 96.5925 23.3503 96.8619 23.1975C96.9773 23.1592 97.0158 23.0446 97.0928 23.0064C97.2852 22.9299 97.4776 22.8917 97.6315 22.7771C97.7855 22.7006 97.9009 22.5096 98.1318 22.4713C98.1703 22.4713 98.1703 22.4713 98.2088 22.4713C98.3627 22.1656 98.6706 22.0127 98.9015 21.7452C99.0169 21.4395 99.1709 21.0191 99.1709 20.5987C99.1709 19.949 98.786 19.9108 98.4012 19.949C97.4391 20.0637 96.7849 20.5987 96.3231 20.9427C96.1692 21.0573 95.9767 21.0573 95.8613 21.1338C95.7074 21.2866 95.7074 21.4395 95.5534 21.5159C95.1686 21.5924 94.9762 21.8599 94.7453 22.051C94.0526 22.6242 93.2829 23.2357 92.4363 23.8089C92.4363 23.8089 92.7057 23.3503 92.8981 23.1975C93.3599 22.7389 93.6678 22.2038 94.0141 21.6688C94.4374 21.5159 94.6683 21.0191 94.9762 20.6752C95.1301 20.5223 95.3225 20.4076 95.361 20.1401C95.8228 19.6051 96.3616 19.1465 96.7849 18.6115C97.1697 18.344 97.3621 17.8471 97.8239 17.6178C97.9394 17.5032 97.8624 17.2357 97.9779 17.121C98.0548 17.121 98.0933 17.121 98.1318 17.121C98.5551 17.0828 98.4782 16.5478 99.0939 16.4713C99.1708 16.4713 99.2478 16.4331 99.3248 16.4331C99.3248 16.1656 100.518 15.0191 100.98 14.293C101.172 14.0637 101.518 13.9108 101.518 13.4905C101.326 13.414 101.326 13.2612 101.133 13.2994C100.71 13.3758 100.595 13.7962 100.364 13.9873C100.094 14.1783 99.902 14.4076 99.5942 14.5987C99.1708 15.2866 98.4397 15.6688 98.0164 16.3949C97.8239 16.4331 97.5546 16.7771 97.5546 16.7771C97.0928 17.2739 96.631 18 96.2846 18.1147C96.2076 18.2293 96.1307 18.3822 96.0537 18.4586C95.9767 18.5733 95.7458 18.6115 95.7458 18.6879C95.7458 18.6879 95.7458 18.7643 95.7458 18.8026C95.7458 18.879 95.4765 19.0319 95.3995 19.1083C94.8223 19.6433 94.4759 20.293 93.9756 20.8662C93.6678 21.1338 93.5138 21.5924 93.0905 21.7452C93.0905 21.7834 93.0905 21.8217 93.0905 21.8599C93.0905 21.9745 92.9366 21.9745 92.8981 22.0892H92.8596C92.7442 22.0892 92.7826 22.3185 92.6672 22.3567C92.6287 22.6624 92.2824 22.6242 92.2824 22.9682C91.8591 23.2357 92.013 23.465 91.6282 23.7325V23.7707C91.6282 23.9618 91.4742 24 91.3973 24.1529C91.2048 24.3057 91.0509 24.4204 90.8585 24.535C90.6276 24.6879 90.3967 24.8026 90.2043 25.0701C89.7425 25.3376 89.2807 25.5669 88.7804 25.7962C88.5495 25.949 88.2416 26.0255 87.9723 26.1783C87.7414 26.3312 87.5489 26.2548 87.2796 26.3694C87.1256 26.4076 86.9332 26.4076 86.8178 26.4841C86.7793 26.3312 86.356 26.5605 86.4329 26.293C86.3175 25.9873 86.6253 25.9108 86.7408 25.7962C86.8947 25.6433 87.0102 25.4522 87.2026 25.3758C87.3565 25.1465 87.5105 24.8408 87.7414 24.7261C87.7798 24.2675 88.2032 24.2293 88.1647 23.7325C88.0492 23.6178 88.0492 23.3503 87.8568 23.2739C86.9332 23.2357 86.9332 24.0764 86.279 24.344C86.279 24.6879 86.0481 24.8026 85.8942 24.9936C85.8557 25.3758 85.6248 25.5669 85.5863 25.9108C85.3554 25.8726 85.3554 26.1401 85.2015 26.1783C85.086 26.293 84.9321 26.293 84.7397 26.293C84.7397 26.5605 84.3933 26.5605 84.2779 26.6369C84.2009 26.6752 84.1624 26.7516 84.047 26.7898C83.9315 26.8662 83.8161 26.828 83.8161 26.9809C83.3543 27.0191 82.931 27.4395 82.4692 27.172C82.5076 26.5605 82.8155 26.2548 82.9694 25.7198C83.2003 25.6815 83.2003 25.414 83.3543 25.2994C83.5082 25.1847 83.5467 24.9554 83.7391 24.879C83.97 24.5733 84.2394 24.3057 84.4703 23.9618C85.009 23.7707 85.2784 23.3121 85.7402 23.0064C86.0096 22.9299 86.1251 22.7006 86.356 22.586C86.5869 22.4713 86.9332 22.3949 87.1641 22.242C87.6644 22.2803 87.9723 21.8981 88.3571 22.0892C88.3186 22.4713 87.8183 22.6624 88.1262 23.0828C88.2416 23.0446 88.434 23.0828 88.434 22.9682C88.434 22.8535 88.6265 22.8917 88.588 22.7389C88.8189 22.6624 88.9343 22.4713 89.0498 22.3185C89.2422 21.6306 89.0113 21.0573 88.434 20.9809C87.7414 21.1338 87.2795 21.5159 86.5484 21.6688C86.3944 21.9745 85.9711 22.051 85.6633 22.2038C85.3939 22.3567 85.2784 22.6624 84.8551 22.7006C84.7012 22.9682 84.4318 23.1975 84.1624 23.3885C84.3933 23.121 84.5857 22.9299 84.5472 22.9299C84.3548 22.9299 84.2009 22.9299 84.0085 22.9299C83.5082 23.1975 80.1987 24.9172 79.8523 24.9172C79.8138 24.9172 79.7753 24.9172 79.7369 24.879C79.8523 24.3057 79.9678 23.7325 79.9678 23.121C79.9678 23.0828 79.9678 23.0064 79.9678 22.9682C79.9293 22.9299 79.9293 22.8535 79.8908 22.8153C79.8908 22.6242 79.9678 22.4331 79.9678 22.242C79.9678 22.2038 79.9678 22.2038 79.9678 22.1656C79.8908 22.0892 79.8523 21.9363 79.8908 21.8599C79.5829 21.5159 79.3135 21.1338 78.8133 21.1338C78.236 21.1338 75.3113 22.8535 75.1574 23.3121C74.8495 23.3503 73.3487 24.6879 72.7714 25.2612C72.579 25.3758 72.3096 25.5287 72.1557 25.6433C71.5784 26.0255 70.7318 26.5605 69.9621 26.6752C69.7312 26.7134 69.3849 26.6369 69.1155 26.4841C69.2694 25.7962 70.3085 24.9936 70.7318 24.6115C71.1551 24.2293 71.5399 23.7325 71.9248 23.3121C72.0017 23.1592 72.0787 23.121 72.0787 22.9682C72.0787 22.8917 72.1172 22.9299 72.1557 22.8917C72.2711 22.7006 72.3481 22.1274 72.0017 22.0892C71.8863 21.8599 71.6169 22.0892 71.5399 22.1274C71.4245 22.3185 71.309 22.4331 71.1551 22.5096C71.0397 22.6242 70.8472 22.6624 70.8472 22.8917C70.6164 22.9682 70.5009 23.1975 70.347 23.3503C69.8467 23.8471 68.8846 24.7643 68.5767 25.3758C68.1919 25.4905 67.884 25.758 67.5377 25.9873C67.1529 26.1783 66.768 26.3312 66.4217 26.5605C65.729 26.6369 65.1133 27.172 64.3051 26.7898C64.1897 26.0637 64.7284 26.0255 64.8439 25.5287C65.0748 25.4522 65.806 24.344 65.9599 24.1529C66.1523 24 66.4217 23.7707 66.4987 23.5032C66.8835 23.1592 67.3453 22.9682 67.3068 22.2038C67.1144 22.0892 67.0374 21.8599 66.6911 21.8981C66.4602 21.8599 66.4602 22.0892 66.3832 22.2038C66.3447 22.3949 65.4981 23.0446 65.5366 23.3121C65.4596 23.3503 65.2672 23.5796 65.0363 23.8854C64.8054 24.0764 64.5745 24.2293 64.2666 24.344C63.2276 25.2229 61.1495 26.3312 59.5717 26.1401C59.1484 26.1019 58.4172 25.6051 58.3787 24.8408C58.4172 24.1147 59.3023 24.1147 59.8026 24.0382C60.3413 23.9236 60.8416 23.8471 61.1495 23.7707C61.2649 23.7325 61.3034 23.6561 61.3804 23.6178C61.5728 23.5796 61.7652 23.5796 61.9192 23.5032C62.0731 23.465 62.1885 23.2739 62.4194 23.3121C62.4579 23.3121 62.4579 23.3121 62.4964 23.3121C62.6503 23.0446 62.9582 22.9299 63.1891 22.7389C63.3045 22.4713 63.4585 22.051 63.4585 21.6688C63.4585 21.0191 63.0736 20.9045 62.6888 20.8662C61.7267 20.7898 61.0725 21.172 60.6107 21.4013C60.4568 21.4777 60.2644 21.4395 60.1489 21.5159C59.995 21.6306 59.995 21.7834 59.8411 21.8217C59.4562 21.7834 59.2638 22.051 59.0329 22.2038C58.3402 22.6242 57.5321 23.0446 56.7239 23.465C56.7239 23.465 56.9933 23.0446 57.1857 22.9682C57.6475 22.586 57.9554 22.1274 58.3017 21.6688C58.7251 21.5924 58.956 21.1338 59.2638 20.9045C59.4178 20.7898 59.6102 20.6752 59.6486 20.4459C60.1104 20.0255 60.6492 19.6815 61.0725 19.2229C61.4574 19.0319 61.6498 18.5733 62.1116 18.4586C62.227 18.344 62.1501 18.0764 62.2655 18C62.3425 18.0382 62.381 18.0382 62.4194 18.0382C62.8428 18.0764 62.7658 17.5414 63.3815 17.6178C63.4585 17.6178 63.5354 17.6178 63.6124 17.6178C63.6124 17.3503 64.8054 16.4713 65.3057 15.8217C65.4981 15.6306 65.8444 15.5541 65.8444 15.1338C65.6135 15.0191 65.652 14.8662 65.4596 14.8662C64.9978 14.828 64.8824 15.2102 64.6515 15.3631C64.3821 15.4777 64.1897 15.707 63.8433 15.7834C63.42 16.3949 62.6503 16.6242 62.2655 17.2357C62.0731 17.2357 61.8037 17.5032 61.8037 17.5032C61.3419 17.8854 60.8801 18.535 60.5338 18.5733C60.4568 18.6497 60.3798 18.8026 60.3029 18.879C60.2259 18.9554 59.995 18.9936 59.995 19.0319C59.995 19.0319 59.995 19.1083 59.995 19.1465C59.995 19.2229 59.7256 19.3376 59.6486 19.3758C59.0714 19.7962 58.7251 20.3694 58.2248 20.828C57.9169 21.0573 57.763 21.4395 57.3397 21.5159C57.3397 21.5541 57.3397 21.5924 57.3397 21.6306C57.3397 21.7452 57.1857 21.707 57.1472 21.8217H57.1088C56.9933 21.8217 57.0318 22.051 56.9163 22.0127C56.8779 22.3185 56.5315 22.1656 56.5315 22.5478C56.1082 22.7006 56.3006 23.0064 55.8773 23.1975V23.2357C55.8773 23.5032 55.6464 23.4268 55.6464 23.6943C55.6464 23.7325 55.6464 23.7707 55.6464 23.8089C55.5694 23.8471 55.4925 23.9236 55.4155 24C55.2616 24 54.9922 24.1147 54.8767 24.1147C54.7228 24.1529 54.4149 24.2675 54.261 24.3822C53.5683 24.8026 52.2599 25.1465 51.4133 25.0701C51.3748 25.0701 51.2978 25.0701 51.2593 25.0319C51.0284 24.9172 50.6436 24.7643 50.4127 24.4968C50.7975 24.4204 50.9899 24.1529 51.3748 24.0764C51.4902 23.8854 51.7211 23.8471 51.8366 23.6943C51.9905 23.5414 52.1444 23.1975 52.3753 23.121C52.4138 22.5478 53.0295 21.9363 53.0295 21.2866C53.145 21.172 53.145 20.8662 53.1835 20.7516C53.222 20.6752 53.2604 20.7134 53.2604 20.5987C53.2989 20.293 53.2604 20.0637 53.0295 19.8344C52.4908 19.7197 52.2599 19.9873 51.6826 19.8726C51.3748 20.1401 50.9515 20.293 50.4897 20.4076C50.2588 20.7516 49.797 20.8662 49.643 21.2866C49.4121 21.3248 49.3352 21.5541 49.2582 21.7834C49.0658 21.8217 48.7964 22.586 48.7579 22.7389C48.7579 22.7771 48.681 22.8153 48.681 22.8153C48.604 23.0446 48.6425 23.3503 48.681 23.5796C48.5655 23.5796 48.4885 23.6178 48.4501 23.6943C48.3346 23.6943 48.1037 23.6561 47.9883 23.6943C47.8343 23.7325 47.7574 23.8471 47.6034 23.8854C47.6034 23.8854 47.1801 24.0382 47.1416 24.0382C46.8722 24.2293 46.4874 24.2293 46.2565 24.2293C45.6793 24.1911 44.9866 24.3057 44.4478 23.9618C44.4478 23.9236 44.4478 23.8854 44.3708 23.8471C44.1784 23.7707 44.063 23.6178 43.909 23.4268C43.6397 22.7389 43.909 22.2803 44.0245 21.6688C44.2169 21.5924 44.2169 21.3248 44.3324 21.172C44.4478 21.0191 44.6402 20.9809 44.6402 20.7516C45.0635 20.5605 45.0251 20.0637 45.4484 19.8726C45.6408 19.414 46.0641 19.2612 46.2565 18.8408C46.372 18.8026 46.6798 18.9936 46.6413 18.8408C46.9107 18.5733 47.2956 18.9936 47.488 18.9936C47.6804 18.9936 47.7958 18.9554 47.9498 18.9172C48.1807 19.0319 48.1807 19.0319 48.4116 18.9936C48.9503 18.9172 48.9888 19.1847 49.5276 19.0319C49.72 19.1465 49.9894 19.1847 50.2972 19.2229C50.7206 19.1465 51.0284 19.2994 51.3748 19.1465C51.8751 19.2612 52.1829 19.1847 52.6447 19.2612C52.6447 19.2612 52.9526 19.2612 53.3759 19.2994C53.5683 19.0701 53.2989 18.9172 53.1065 18.7643C51.2978 18.6497 49.3736 18.4204 47.5649 18.2675C47.411 18.1911 47.0262 18.2675 47.0262 18.0764C47.2956 17.1975 47.9883 16.8535 48.3731 16.1656C48.1807 15.9745 48.4501 15.4777 48.1422 15.4013C47.6034 15.2484 47.6419 15.7452 47.3725 15.8981C47.0647 16.2803 46.8338 16.6624 46.4874 17.0064C46.3335 17.1975 45.9871 17.4268 45.8717 17.5414C45.8332 17.6178 45.8332 17.6943 45.7947 17.7707C45.7177 17.8471 45.6023 17.9618 45.4868 17.9236C44.7172 17.8471 43.9475 17.8089 43.1394 17.6943C43.0239 17.8471 42.6776 17.6943 42.5236 17.8089C42.3697 17.9236 41.9464 17.6943 41.9849 18C42.1388 18.5733 42.793 18.4586 43.2933 18.535C43.6397 18.5733 44.0245 18.5733 44.2169 18.5733C44.4478 18.5733 44.7172 18.6115 44.8326 18.8026C44.3708 19.2612 44.1015 19.9873 43.7166 20.5605C43.4857 20.7134 43.3703 21.4395 43.1779 21.8217C43.0624 22.242 42.947 22.6242 42.9854 23.0446C43.0624 23.6178 43.4857 24 43.6781 24.3822C43.8706 24.4968 44.1399 24.5733 44.2169 24.7261C44.6787 24.8408 45.256 24.879 45.6023 25.0701C45.7562 24.9936 45.9102 24.9936 46.0641 24.9936C46.4104 24.9936 46.1411 25.0319 46.372 25.0319C46.5259 25.0319 46.7953 24.9936 46.9107 24.9554C47.1031 24.9554 47.1416 24.879 47.2186 24.879C47.2571 24.8408 47.5265 24.7643 47.5649 24.8026C47.8343 24.7643 48.1037 24.5733 48.2576 24.4968C48.4116 24.4586 48.5655 24.344 48.7194 24.2675C48.7964 24.4968 48.9118 24.6879 49.1427 24.7643C49.7585 25.2994 50.6821 25.7197 51.7211 25.7962C52.4523 25.8726 53.4913 25.5287 54.2995 25.1847C53.9531 25.4522 53.2604 26.0255 53.2604 26.5605C53.2604 26.7134 53.3374 26.9809 53.5683 27.0191C53.7607 27.0573 53.9147 26.9045 54.1456 26.9045C54.184 26.9045 54.2225 26.9427 54.261 26.9427C54.5304 26.4459 54.7228 26.4076 54.9922 26.0255C55.2616 25.6051 55.9158 25.3376 56.1467 24.9172C56.8394 24.344 56.8394 24.1147 57.4936 23.8854C57.4551 24.1147 57.3397 24.2675 57.3397 24.5733C57.3397 24.7261 57.5321 25.0701 57.5706 25.4522C58.0708 25.9873 58.6096 26.7134 59.6102 26.828C59.6486 26.828 59.6871 26.828 59.7256 26.828C60.2644 26.6752 60.9186 26.6369 61.4574 26.5223C61.8037 26.5223 62.1885 26.4459 62.381 26.2166C62.7273 26.0637 63.1121 25.8726 63.497 25.6815C63.3815 25.9873 63.343 26.3312 63.2276 26.6369C63.42 26.9045 63.42 27.3631 63.7663 27.4777C64.0742 27.6688 64.4206 27.6306 64.6515 27.6306C64.7669 27.6306 64.9208 27.6688 65.0363 27.6688C65.6905 27.5924 66.3447 27.2484 66.922 27.1338C67.1913 26.8662 67.4992 26.6369 67.961 26.5605C68.0765 26.828 68.1919 27.0955 68.4228 27.2102C68.7692 27.2484 69.154 27.4013 69.5388 27.4395C69.7312 27.3631 70.0006 27.3248 70.193 27.3248C70.3854 27.2866 70.6164 27.2102 70.8472 27.0955C70.193 28.051 68.4228 30.0764 68.6152 30.535C68.4228 30.6115 67.8456 31.6815 67.884 31.9108C67.6531 31.949 67.6916 32.2548 67.4992 32.293C67.4992 32.3312 67.4992 32.4076 67.4992 32.4459C67.4992 32.6369 67.3453 32.7516 67.3453 32.9045C67.1529 32.9809 67.3068 33.3631 67.1144 33.4395C67.0374 33.8981 66.845 34.2803 66.6911 34.7006C66.6911 35.0828 66.5756 35.8089 66.845 36.1529C66.8835 36.1529 66.8835 36.1529 66.922 36.1529C67.8456 36.2293 69.5773 33.3631 70.0391 32.6369C70.2315 32.293 70.5394 32.0255 70.7703 31.7197C70.7703 31.6051 70.8472 31.4904 70.9242 31.4904C71.309 30.9554 72.4635 29.0064 72.9253 28.7771C72.9253 28.5478 73.1562 28.4713 73.0793 28.242C73.4256 28.1274 74.6956 26.2166 75.0804 25.7962C75.3498 26.293 75.5422 26.828 75.927 27.2484C76.1964 27.3248 76.5043 27.3248 76.8121 27.3248C77.0046 27.3248 77.197 27.3248 77.3894 27.3248C77.4279 27.1338 77.8512 27.2866 77.8897 27.0573C78.0436 26.9809 78.1975 26.9427 78.3515 26.9045C78.8133 26.5987 79.3905 26.2548 79.8138 26.0255C80.0062 25.8344 80.2371 25.6815 80.5065 25.6051C80.545 25.5287 82.7385 24.4204 83.3543 24.0764C83.1234 24.3057 82.931 24.4968 82.7385 24.7643C82.5076 25.0319 82.3537 25.3758 82.1228 25.5669C82.0458 25.9108 81.9304 26.2548 81.738 26.4459C81.5456 27.172 81.738 27.707 82.1228 28.051C82.2767 27.9745 82.5461 28.1274 82.5076 28.1274C82.777 28.1274 83.4312 27.9363 83.5467 27.8599C83.7776 27.6688 84.2394 27.5924 84.3548 27.4777C84.6242 27.2866 84.9321 27.1338 85.163 27.0573C85.3554 27.0191 85.3939 26.7898 85.6248 26.7898C85.8557 26.7516 85.7017 27.0955 85.8557 27.0955C85.8557 27.2866 86.1635 27.2102 86.1635 27.4013C86.279 27.4395 86.6253 27.2866 86.6253 27.4777C87.1641 27.3631 87.5489 27.3631 88.1262 27.2484C88.3571 26.9045 88.8574 26.9427 89.1652 26.6369C89.3576 26.6369 89.3961 26.5605 89.5501 26.4459C89.704 26.3694 89.8964 26.3312 90.0119 26.2548C90.0888 26.2166 90.1658 26.1401 90.2428 26.1019C90.2428 26.1401 90.2428 26.1783 90.2043 26.2166C89.9349 26.4841 89.0883 27.3248 89.0883 27.8981C89.0883 28.051 89.1652 28.2803 89.3961 28.2803C89.5885 28.2803 89.7425 28.0892 89.9734 28.051C90.0119 28.051 90.0503 28.051 90.0888 28.051C90.3582 27.4777 90.5891 27.4013 90.82 26.9427C91.0894 26.4459 91.7436 26.0637 91.9745 25.6051C92.6672 24.879 92.6672 24.6497 93.3214 24.3057C93.2829 24.535 93.1675 24.7261 93.1675 25.0319C93.1675 25.1847 93.3599 25.4904 93.3984 25.8344C93.8987 26.2548 94.4374 26.8662 95.438 26.7898C95.4765 26.7898 95.5149 26.7898 95.5534 26.7898C96.0922 26.5223 96.7464 26.3694 97.2852 26.1019C97.6315 26.0255 98.0164 25.8726 98.2088 25.6051C98.5551 25.3758 98.94 25.1083 99.3248 24.8408C99.2093 25.1465 99.1708 25.5287 99.0554 25.8344C99.2478 26.0637 99.2478 26.5223 99.5942 26.5605C99.902 26.6752 100.248 26.5605 100.441 26.5223C100.556 26.4841 100.71 26.4841 100.826 26.4841C101.48 26.293 102.134 25.7962 102.711 25.5669C102.981 25.2612 103.289 24.9554 103.712 24.7643C103.827 24.9936 103.943 25.2612 104.174 25.3376C104.52 25.2612 104.905 25.3758 105.251 25.3376C105.444 25.1847 105.675 25.1465 105.867 25.0701C106.637 24.7643 107.676 23.7325 107.714 23.7707C107.753 23.7707 108.792 22.8917 108.792 22.8917C108.907 22.5478 108.676 21.8599 108.638 21.8981ZM95.5149 22.2038C96.2461 21.707 97.0543 21.2102 97.7855 20.7516C97.8624 20.7516 97.9394 20.7134 98.0164 20.7134C98.1318 20.7134 98.2473 20.7134 98.3242 20.7516C98.3242 21.8981 95.7458 22.8153 94.2065 23.3121C94.5914 22.8917 95.0147 22.4713 95.5149 22.2038ZM59.7641 22.3185C60.4953 21.9745 61.3034 21.6688 62.0346 21.3631C62.1116 21.3631 62.1885 21.3631 62.2655 21.4013C62.381 21.4013 62.4964 21.4395 62.5734 21.4777C62.5734 22.6242 59.995 22.9682 58.4557 23.1592C58.879 22.8153 59.3023 22.4713 59.7641 22.3185ZM49.6045 23.465C49.643 22.6242 50.3742 21.7834 50.6821 21.2866C51.1439 21.172 51.3748 20.7134 51.8751 20.5223C51.9905 20.4841 52.2214 20.5605 52.4138 20.4459C52.4908 20.4459 52.4908 20.5605 52.4908 20.5987C52.4908 20.9045 52.2984 21.1338 52.1444 21.3631C51.8366 21.7834 51.1824 22.8535 50.7206 23.1592C50.5666 23.2739 50.4512 23.3121 50.2588 23.3885C50.1433 23.4268 49.8739 23.5414 49.6045 23.465ZM74.1568 25.4904C74.0798 25.758 73.772 25.8726 73.772 26.2166C73.0023 26.7516 72.5405 27.8599 71.9248 28.5478C71.9248 28.586 71.9248 28.6624 71.9248 28.7006C71.8863 28.7006 71.8093 28.7006 71.7708 28.7006C71.6554 28.8535 71.6939 29.0446 71.6169 29.1592C71.5015 29.1975 71.386 29.3121 71.386 29.465C71.0781 29.9618 70.6548 30.3822 70.347 30.8408C70.1161 30.8025 70.2315 31.0701 70.193 31.1465C70.1545 31.1847 70.0776 31.1847 70.0391 31.2229C69.9237 31.4522 69.6928 31.7197 69.5773 31.949C69.5773 31.9873 69.5773 32.0637 69.5773 32.1019C69.2694 32.3312 69.1925 32.828 68.8461 33.0191C68.7692 33.2866 68.6152 33.4777 68.3843 33.6306C68.2689 33.8599 68.1919 34.1274 67.884 34.1656C67.884 34.1274 67.9225 34.0892 67.9225 34.051C67.9225 33.9363 67.8071 33.8599 67.8071 33.7452C67.8071 33.707 67.8456 33.707 67.884 33.6688C67.9225 33.5159 68.1149 33.5159 68.038 33.2866C68.1534 32.9427 68.3074 32.7134 68.3074 32.3312C68.4998 32.1401 68.5383 31.7962 68.8076 31.6433C68.8076 31.5287 68.8076 31.3758 68.8076 31.2612C69.1155 30.9936 69.154 30.6115 69.4234 30.344C69.4619 29.8854 69.8852 29.7325 70.0006 29.3121C70.1161 29.1975 71.2321 27.5541 71.2706 27.5159C71.5784 27.4395 71.7708 26.7516 72.0787 26.7516C72.0787 26.4841 72.3481 26.4841 72.4251 26.293C72.502 26.2548 72.5405 26.1401 72.579 26.0255C72.8869 25.8344 73.3871 25.5287 73.3871 25.5287C73.3871 25.5287 73.3487 25.414 73.3102 25.2994C73.3871 25.2229 73.4641 25.1465 73.5411 25.1083C73.7335 24.8026 74.1568 24.6879 74.2722 24.3057C74.5031 24.3057 74.5801 24.1147 74.734 24C74.811 24 74.888 23.9618 74.9649 23.9236C75.0419 23.9236 75.0804 23.9236 75.0804 23.9618C74.9649 24.3822 74.3492 25.2229 74.1568 25.4904ZM78.5439 25.3376C78.4284 25.3758 78.1206 25.4904 78.1206 25.6433C77.6203 25.6433 77.1585 25.9108 76.7352 25.9108C76.1579 25.9108 76.0425 25.2229 75.6961 24.9936C75.7346 24.7643 75.8501 24.6115 75.9655 24.4586C76.1964 24.0764 76.6967 23.2739 76.7352 22.8535C76.9661 22.7006 77.197 22.4713 77.3509 22.2038C77.7357 22.2038 77.8127 21.8217 78.236 21.8981C78.2745 21.8217 78.3515 21.7834 78.3899 21.6688C78.4284 21.6688 78.4284 21.6688 78.4669 21.6688C78.6978 21.6688 78.8902 21.7452 79.1211 21.8217C79.2751 22.1274 79.3135 22.4713 79.3135 22.8535C79.2751 23.6178 79.0057 24.7261 78.5439 25.3376ZM90.4352 25.7962L90.3967 25.8344C90.3967 25.7962 90.4352 25.7962 90.4352 25.7962Z" fill="white"/>
<path d="M9.73613 10.2038C9.50523 9.82165 9.27433 9.4777 8.81253 9.17197C8.81253 9.17197 8.81253 9.17197 8.77405 9.17197C8.6586 9.13375 8.58163 9.17197 8.50467 9.28662C8.46618 9.40127 8.50467 9.4777 8.62011 9.55414H8.6586C8.96646 9.66879 9.27433 10.0127 9.46674 10.3567C9.69764 10.7006 9.85158 11.0828 10.0055 11.465C10.2364 12.2675 10.3903 13.1083 10.3903 13.949V13.9873C10.3903 14.1019 10.5058 14.1783 10.6212 14.1401C10.7367 14.1401 10.8137 14.0255 10.7752 13.9108C10.6212 13.0701 10.5443 12.2293 10.2364 11.3885C10.121 10.9681 9.92854 10.5478 9.73613 10.2038Z" fill="white"/>
<path d="M25.5143 12.4204C25.6298 12.4204 25.7068 12.3439 25.7068 12.2293C25.7068 12.1146 25.6298 12.0382 25.5143 12.0382C23.2053 12.0764 20.8579 11.9618 18.5104 11.8471C16.1629 11.6943 13.8539 11.5414 11.545 11.3121C11.4295 11.3121 11.3525 11.3885 11.3525 11.5032C11.3525 11.6178 11.4295 11.6943 11.545 11.6943C16.1629 11.9618 20.8194 12.2675 25.5143 12.4204C25.4759 12.4204 25.4759 12.4204 25.5143 12.4204Z" fill="white"/>
<path d="M12.8149 16.2803C16.4324 18.0764 20.1267 19.758 23.8981 21.2102C27.6694 22.7389 31.5178 24 35.4046 25.1465C35.52 25.1847 35.597 25.1083 35.6354 24.9936C35.6739 24.879 35.597 24.8025 35.4815 24.7643C31.5562 23.7707 27.7079 22.4713 23.9366 21.0191C22.0509 20.293 20.2037 19.4904 18.3565 18.6497C16.5093 17.8089 14.7006 16.9299 12.9689 15.9363C12.8919 15.8981 12.7765 15.9363 12.6995 16.0127C12.661 16.0892 12.6995 16.2038 12.8149 16.2803Z" fill="white"/>
</g>
<defs>
<clipPath id="clip0">
<rect width="137" height="36" fill="white"/>
</clipPath>
</defs>
</svg>
