<svg width="149" height="31" viewBox="0 0 149 31" fill="none" xmlns="http://www.w3.org/2000/svg">
<path d="M5.77722 23.7754C5.10296 23.7741 4.45675 23.5014 3.98041 23.0172C3.50408 22.533 3.23655 21.8767 3.23655 21.1926V8.44435C3.23655 8.31866 3.18735 8.19812 3.09976 8.10925C3.01217 8.02037 2.89338 7.97044 2.76952 7.97044H0.434344C0.32606 7.97694 0.219636 7.93973 0.138273 7.86694C0.0569107 7.79414 0.00720814 7.69166 1.40657e-06 7.58184C-0.000289015 7.46169 0.0444037 7.34591 0.125038 7.25793C0.205673 7.16995 0.31623 7.11633 0.434344 7.10792H2.76952C2.89338 7.10792 3.01217 7.058 3.09976 6.96912C3.18735 6.88024 3.23655 6.7597 3.23655 6.63401V0.473172C3.23395 0.36618 3.27246 0.262356 3.34392 0.183646C3.41539 0.104937 3.51422 0.05751 3.61952 0.0513916C3.73255 0.0541409 3.84076 0.0984052 3.92407 0.17597C4.00739 0.253536 4.06014 0.359135 4.07254 0.473172V6.63401C4.07254 6.7597 4.12175 6.88024 4.20933 6.96912C4.29692 7.058 4.41571 7.10792 4.53958 7.10792H6.74398C6.85666 7.11568 6.96275 7.16461 7.0426 7.24564C7.12246 7.32668 7.17068 7.43433 7.17832 7.54866C7.17711 7.60343 7.16527 7.65742 7.14349 7.70755C7.12171 7.75768 7.09041 7.80296 7.05137 7.84081C7.01234 7.87866 6.96634 7.90833 6.916 7.92814C6.86566 7.94794 6.81197 7.95748 6.75799 7.95623H4.53958C4.41571 7.95623 4.29692 8.00616 4.20933 8.09503C4.12175 8.18391 4.07254 8.30445 4.07254 8.43014V21.1783C4.06946 21.4057 4.11069 21.6314 4.19386 21.8425C4.27704 22.0536 4.40052 22.2459 4.5572 22.4084C4.71388 22.5709 4.90068 22.7004 5.10685 22.7894C5.31302 22.8784 5.53449 22.9252 5.75854 22.9271C5.81253 22.9239 5.86661 22.9315 5.91769 22.9496C5.96876 22.9676 6.01582 22.9957 6.05617 23.0323C6.09652 23.0688 6.12937 23.1131 6.15283 23.1625C6.17629 23.212 6.1899 23.2656 6.19288 23.3204C6.18906 23.4343 6.14495 23.5429 6.06861 23.6265C5.99227 23.7101 5.88883 23.7629 5.77722 23.7754Z" fill="#FDFBF2"/>
<path d="M21.8479 23.7382C19.717 23.6813 17.6928 22.7799 16.2088 21.2271C14.7248 19.6743 13.899 17.5936 13.9083 15.4306C13.9737 10.7768 17.4718 7.12292 21.8479 7.12292C26.0185 7.12292 29.3951 10.4403 29.7034 14.7861V14.9377C29.6874 15.0377 29.6401 15.1299 29.5687 15.2007C29.4973 15.2715 29.4053 15.3172 29.3064 15.3311H15.2113C15.1476 15.3307 15.0845 15.3435 15.0259 15.3688C14.9672 15.394 14.9143 15.4312 14.8704 15.478C14.7855 15.5741 14.7404 15.6997 14.7443 15.8287C14.8211 17.7025 15.5992 19.4761 16.9199 20.7881C18.2407 22.1001 20.0047 22.8518 21.8525 22.8899C23.0364 22.8859 24.1992 22.5718 25.2285 21.9782C26.2577 21.3846 27.1186 20.5315 27.7278 19.5015C27.7618 19.4466 27.8095 19.4018 27.8662 19.3718C27.9228 19.3418 27.9863 19.3277 28.0501 19.3309C28.1466 19.336 28.2415 19.3585 28.3303 19.3972C28.372 19.4245 28.4079 19.4599 28.436 19.5014C28.4641 19.5429 28.4837 19.5896 28.4938 19.6389C28.5155 19.7548 28.4939 19.8748 28.4331 19.9754C27.7269 21.1055 26.7559 22.0407 25.6069 22.6973C24.4578 23.3538 23.1663 23.7115 21.8479 23.7382ZM21.8479 8.0044C20.1828 8.02181 18.575 8.62382 17.2979 9.70808C16.0207 10.7924 15.1531 12.292 14.8423 13.952C14.8291 14.0213 14.8313 14.0927 14.8488 14.1611C14.8663 14.2294 14.8985 14.2929 14.9433 14.347C14.9881 14.401 15.0442 14.4443 15.1075 14.4735C15.1708 14.5027 15.2398 14.5172 15.3094 14.5159H28.3116C28.3812 14.5172 28.4502 14.5027 28.5135 14.4735C28.5768 14.4443 28.6329 14.401 28.6777 14.347C28.7225 14.2929 28.7548 14.2294 28.7722 14.1611C28.7897 14.0927 28.7919 14.0213 28.7787 13.952C28.4806 12.3006 27.6273 10.8052 26.3644 9.72064C25.1014 8.6361 23.5069 8.02956 21.8525 8.0044H21.8479Z" fill="#FDFBF2"/>
<path d="M47.3432 23.7382C47.2812 23.7476 47.2179 23.7388 47.1608 23.7127C47.1037 23.6867 47.0551 23.6445 47.0209 23.5913C47.0112 23.572 46.9986 23.5545 46.9836 23.5392L40.5525 15.6628C40.5112 15.6122 40.4599 15.571 40.402 15.5416C40.3441 15.5122 40.2809 15.4954 40.2162 15.4921C40.1548 15.4918 40.0938 15.5037 40.0369 15.5273C39.98 15.5509 39.9283 15.5857 39.8846 15.6296L36.4286 19.1223C36.3844 19.1662 36.3493 19.2185 36.3253 19.2763C36.3012 19.3341 36.2887 19.3961 36.2885 19.4588V23.2975C36.2885 23.4093 36.2447 23.5166 36.1667 23.5957C36.0888 23.6748 35.983 23.7192 35.8728 23.7192C35.7626 23.7192 35.6568 23.6748 35.5789 23.5957C35.5009 23.5166 35.4571 23.4093 35.4571 23.2975V0.440737C35.4546 0.327941 35.4957 0.218623 35.5717 0.136229C35.6476 0.0538361 35.7524 0.0049297 35.8635 0V0C35.9717 0.0105587 36.0722 0.0614744 36.1455 0.142892C36.2188 0.224309 36.2598 0.330439 36.2604 0.440737V16.8997C36.2608 16.9934 36.2886 17.0849 36.3402 17.1626C36.3919 17.2403 36.4651 17.3008 36.5505 17.3363C36.636 17.3718 36.73 17.3808 36.8205 17.3621C36.911 17.3434 36.994 17.2979 37.0591 17.2314L47.0443 7.10866C47.0806 7.06872 47.1247 7.03677 47.1737 7.01476C47.2227 6.99275 47.2756 6.98116 47.3292 6.98071C47.4432 6.98672 47.5519 7.03183 47.6374 7.10866C47.6771 7.14874 47.7086 7.19637 47.7301 7.24883C47.7515 7.30128 47.7626 7.35753 47.7626 7.41434C47.7626 7.47114 47.7515 7.52739 47.7301 7.57985C47.7086 7.6323 47.6771 7.67994 47.6374 7.72001L41.1596 14.3121C41.0763 14.3953 41.0267 14.5071 41.0206 14.6255C41.0146 14.744 41.0525 14.8604 41.1269 14.9519L47.6654 23.0084C47.7353 23.1044 47.7669 23.2236 47.7539 23.3422C47.7409 23.4608 47.6843 23.5701 47.5954 23.6482C47.5261 23.7104 47.4356 23.7427 47.3432 23.7382Z" fill="#FDFBF2"/>
<path d="M60.3736 23.7382C58.6307 23.7244 56.9642 23.0106 55.7388 21.7529C54.5133 20.4952 53.8288 18.7962 53.8351 17.0276V7.54938C53.8338 7.49274 53.8436 7.43641 53.8638 7.38361C53.884 7.3308 53.9143 7.28256 53.9529 7.24163C53.9915 7.2007 54.0377 7.16789 54.0888 7.14507C54.1399 7.12225 54.1949 7.10987 54.2507 7.10864C54.3598 7.11809 54.4614 7.16852 54.5357 7.25005C54.61 7.33158 54.6516 7.43834 54.6524 7.54938V17.0276C54.6305 17.8055 54.7626 18.58 55.0408 19.3051C55.3191 20.0303 55.7379 20.6915 56.2724 21.2496C56.8069 21.8077 57.4463 22.2513 58.1527 22.5543C58.8592 22.8572 59.6183 23.0133 60.3852 23.0133C61.1522 23.0133 61.9113 22.8572 62.6177 22.5543C63.3242 22.2513 63.9636 21.8077 64.4981 21.2496C65.0326 20.6915 65.4513 20.0303 65.7296 19.3051C66.0079 18.58 66.14 17.8055 66.1181 17.0276V7.54938C66.1181 7.43249 66.1638 7.32039 66.2453 7.23773C66.3267 7.15508 66.4372 7.10864 66.5524 7.10864C66.6676 7.10864 66.7781 7.15508 66.8595 7.23773C66.941 7.32039 66.9868 7.43249 66.9868 7.54938V17.0276C66.9843 18.8066 66.2868 20.512 65.0471 21.7699C63.8074 23.0279 62.1267 23.7357 60.3736 23.7382Z" fill="#FDFBF2"/>
<path d="M75.0897 30.9985C74.9838 31.0077 74.8787 30.974 74.7973 30.9047C74.7159 30.8354 74.6648 30.7362 74.6553 30.6288V7.58255C74.6515 7.52838 74.6583 7.47398 74.6753 7.42247C74.6922 7.37097 74.7191 7.32337 74.7542 7.28242C74.7894 7.24146 74.8321 7.20796 74.8801 7.18383C74.928 7.1597 74.9802 7.14542 75.0336 7.14182H75.0897C75.195 7.14182 75.2959 7.18426 75.3704 7.2598C75.4448 7.33535 75.4866 7.43781 75.4866 7.54464V9.9995C75.4816 10.1034 75.5105 10.2062 75.5687 10.2918C75.627 10.3775 75.7114 10.4413 75.8089 10.4734C75.8571 10.4781 75.9055 10.4781 75.9537 10.4734C76.0262 10.4734 76.0977 10.4563 76.1625 10.4234C76.2274 10.3905 76.2838 10.3427 76.3273 10.2838C77.0418 9.31028 77.9682 8.51725 79.0343 7.9665C80.1003 7.41576 81.2773 7.12219 82.4735 7.10864C86.8963 7.10864 90.3617 10.7151 90.3617 15.3168C90.3892 17.4701 89.5743 19.5466 88.0958 21.0913C86.6172 22.6361 84.5954 23.5232 82.4735 23.5581C81.2811 23.5454 80.1073 23.2561 79.042 22.7124C77.9767 22.1686 77.0481 21.3847 76.3273 20.4208C76.2838 20.3619 76.2274 20.3142 76.1625 20.2813C76.0977 20.2484 76.0262 20.2312 75.9537 20.2312C75.9025 20.2311 75.8518 20.2407 75.8042 20.2597C75.7122 20.2912 75.6322 20.3511 75.5753 20.4309C75.5183 20.5107 75.4874 20.6066 75.4866 20.7051V30.5578C75.4932 30.6089 75.4896 30.6607 75.4762 30.7104C75.4628 30.7601 75.4397 30.8066 75.4084 30.8472C75.3771 30.8877 75.3382 30.9216 75.2939 30.9468C75.2496 30.9719 75.2008 30.9879 75.1504 30.9938L75.0897 30.9985ZM82.4735 7.9759C78.7372 7.9759 75.6221 11.1369 75.468 15.0277V15.3357C75.468 17.2211 76.206 19.0292 77.5198 20.3623C78.8336 21.6955 80.6155 22.4444 82.4735 22.4444C84.3315 22.4444 86.1133 21.6955 87.4271 20.3623C88.7409 19.0292 89.479 17.2211 89.479 15.3357C89.509 13.4175 88.7886 11.5653 87.4755 10.1849C86.1625 8.80459 84.3638 8.00854 82.4735 7.97116V7.9759Z" fill="#FDFBF2"/>
<path d="M109.992 23.7382C109.938 23.742 109.885 23.7352 109.834 23.7179C109.783 23.7007 109.736 23.6735 109.696 23.6378C109.655 23.6022 109.622 23.5588 109.599 23.5101C109.575 23.4614 109.561 23.4085 109.557 23.3543V20.8521C109.562 20.7481 109.533 20.6454 109.475 20.5598C109.417 20.4741 109.333 20.4103 109.235 20.3781C109.187 20.3687 109.138 20.3687 109.09 20.3781C109.017 20.3774 108.945 20.3942 108.879 20.4271C108.813 20.46 108.756 20.5082 108.712 20.5677C108.022 21.5396 107.115 22.3319 106.066 22.8797C105.016 23.4275 103.854 23.7152 102.673 23.7192C98.4139 23.7192 94.9531 19.9943 94.9531 15.4116C94.9531 10.8288 98.4139 7.10864 102.673 7.10864C103.853 7.12987 105.013 7.42747 106.061 7.97824C107.11 8.52901 108.018 9.31806 108.717 10.2838C108.76 10.3427 108.817 10.3905 108.881 10.4234C108.946 10.4563 109.018 10.4734 109.09 10.4734C109.139 10.4728 109.188 10.4649 109.235 10.4497C109.329 10.4187 109.41 10.3585 109.468 10.2777C109.526 10.1968 109.557 10.0994 109.557 9.9995V7.58255C109.551 7.52309 109.557 7.46296 109.575 7.40608C109.594 7.3492 109.623 7.29683 109.663 7.25238C109.702 7.20792 109.75 7.17238 109.804 7.14804C109.858 7.12371 109.916 7.11114 109.975 7.11114C110.034 7.11114 110.092 7.12371 110.146 7.14804C110.2 7.17238 110.248 7.20792 110.288 7.25238C110.327 7.29683 110.357 7.3492 110.375 7.40608C110.393 7.46296 110.399 7.52309 110.393 7.58255V23.3164C110.399 23.3684 110.395 23.421 110.381 23.4713C110.366 23.5216 110.343 23.5685 110.31 23.6094C110.278 23.6504 110.239 23.6845 110.194 23.7098C110.148 23.7352 110.099 23.7512 110.048 23.7571L109.992 23.7382ZM102.673 8.00433C98.8762 8.00433 95.7891 11.3217 95.7891 15.4305C95.7891 19.5393 98.8762 22.8899 102.673 22.8899C106.47 22.8899 109.557 19.5441 109.557 15.4305C109.557 11.317 106.484 8.00433 102.673 8.00433Z" fill="#FDFBF2"/>
<path d="M129.317 23.7382C129.256 23.7476 129.192 23.7388 129.135 23.7127C129.078 23.6867 129.029 23.6445 128.995 23.5913C128.985 23.572 128.973 23.5545 128.958 23.5392L122.536 15.6628C122.495 15.6122 122.444 15.571 122.386 15.5416C122.328 15.5122 122.264 15.4954 122.2 15.4921C122.138 15.4918 122.077 15.5037 122.021 15.5273C121.964 15.5509 121.912 15.5857 121.868 15.6296L118.426 19.1223C118.382 19.1662 118.347 19.2185 118.323 19.2763C118.299 19.3341 118.286 19.3961 118.286 19.4588V23.2975C118.292 23.3569 118.286 23.4171 118.268 23.4739C118.25 23.5308 118.22 23.5832 118.181 23.6276C118.141 23.6721 118.093 23.7076 118.039 23.732C117.985 23.7563 117.927 23.7689 117.868 23.7689C117.809 23.7689 117.751 23.7563 117.697 23.732C117.643 23.7076 117.595 23.6721 117.556 23.6276C117.516 23.5832 117.486 23.5308 117.468 23.4739C117.45 23.4171 117.444 23.3569 117.45 23.2975V0.440737C117.449 0.38348 117.46 0.326661 117.481 0.273523C117.502 0.220386 117.533 0.171971 117.573 0.131044C117.612 0.0901176 117.659 0.0574799 117.711 0.0349951C117.763 0.0125104 117.819 0.000618977 117.875 0V0C117.983 0.0105587 118.084 0.0614744 118.157 0.142892C118.23 0.224309 118.271 0.330439 118.272 0.440737V16.8997C118.272 16.9934 118.3 17.0849 118.352 17.1626C118.403 17.2403 118.477 17.3008 118.562 17.3363C118.648 17.3718 118.742 17.3808 118.832 17.3621C118.923 17.3434 119.006 17.2979 119.071 17.2314L129.023 7.10866C129.06 7.06859 129.105 7.03659 129.155 7.01459C129.205 6.9926 129.258 6.98107 129.313 6.98071C129.43 6.98457 129.542 7.02982 129.63 7.10866C129.67 7.14874 129.702 7.19637 129.723 7.24883C129.744 7.30128 129.756 7.35753 129.756 7.41434C129.756 7.47114 129.744 7.52739 129.723 7.57985C129.702 7.6323 129.67 7.67994 129.63 7.72001L123.143 14.3121C123.06 14.3953 123.01 14.5071 123.004 14.6255C122.998 14.744 123.036 14.8604 123.111 14.9519L129.649 23.0084C129.719 23.1044 129.75 23.2236 129.737 23.3422C129.724 23.4608 129.668 23.5701 129.579 23.6482C129.544 23.6808 129.503 23.7057 129.458 23.7213C129.413 23.7368 129.365 23.7425 129.317 23.7382Z" fill="#FDFBF2"/>
<path d="M142.361 23.7382C140.618 23.7244 138.952 23.0106 137.727 21.7529C136.501 20.4952 135.817 18.7962 135.823 17.0276V7.54938C135.822 7.49274 135.831 7.43641 135.852 7.38361C135.872 7.3308 135.902 7.28256 135.941 7.24163C135.979 7.2007 136.025 7.16789 136.077 7.14507C136.128 7.12225 136.183 7.10987 136.239 7.10864C136.347 7.1192 136.447 7.17012 136.521 7.25153C136.594 7.33295 136.635 7.43908 136.635 7.54938V17.0276C136.614 17.8055 136.746 18.58 137.024 19.3051C137.302 20.0303 137.721 20.6915 138.256 21.2496C138.79 21.8077 139.429 22.2513 140.136 22.5543C140.842 22.8572 141.601 23.0133 142.368 23.0133C143.135 23.0133 143.894 22.8572 144.601 22.5543C145.307 22.2513 145.947 21.8077 146.481 21.2496C147.016 20.6915 147.434 20.0303 147.713 19.3051C147.991 18.58 148.123 17.8055 148.101 17.0276V7.54938C148.101 7.43249 148.147 7.32039 148.228 7.23773C148.31 7.15508 148.42 7.10864 148.536 7.10864C148.651 7.10864 148.761 7.15508 148.843 7.23773C148.924 7.32039 148.97 7.43249 148.97 7.54938V17.0276C148.969 18.8061 148.272 20.5116 147.033 21.7696C145.794 23.0277 144.114 23.7357 142.361 23.7382Z" fill="#FDFBF2"/>
</svg>
