<svg width="55" height="54" viewBox="0 0 55 54" fill="none" xmlns="http://www.w3.org/2000/svg">
<path d="M27.6351 0C12.6833 0 0.5625 12.0886 0.5625 27.0006C0.5625 41.9125 12.6833 54.0005 27.6351 54.0005C42.5868 54.0005 54.707 41.912 54.707 27.0006C54.707 12.0892 42.5862 0 27.6351 0ZM42.1051 20.0405C42.126 20.3411 42.126 20.6422 42.126 20.9455C42.126 30.1933 35.066 40.862 22.1564 40.862V40.8547C18.3429 40.8601 14.6083 39.7707 11.3988 37.7166C13.2363 37.9376 15.0995 37.7951 16.8817 37.2972C18.664 36.7994 20.3303 35.9561 21.7855 34.8155C20.3207 34.7882 18.901 34.3051 17.7251 33.4335C16.5492 32.562 15.6757 31.3457 15.227 29.9548C16.2778 30.1567 17.361 30.1154 18.3932 29.8341C16.805 29.5143 15.3767 28.6563 14.3506 27.4058C13.3245 26.1552 12.7638 24.5892 12.7636 22.9733V22.8842C13.7397 23.4265 14.8322 23.727 15.949 23.7605C14.4632 22.7701 13.4116 21.2524 13.008 19.5161C12.6045 17.7798 12.8794 15.9554 13.7768 14.4141C15.539 16.5773 17.7379 18.3465 20.2306 19.6067C22.7233 20.867 25.4539 21.59 28.2451 21.7288C27.8959 20.2282 28.0522 18.6547 28.69 17.2516C29.3278 15.8486 30.4114 14.6943 31.7732 13.9674C33.135 13.2405 34.699 12.9815 36.2233 13.2304C37.7476 13.4793 39.1471 14.2223 40.2054 15.3445C41.7772 15.0351 43.2845 14.4604 44.6623 13.6449C44.1383 15.2657 43.0419 16.6416 41.577 17.5166C42.9682 17.3531 44.3268 16.9817 45.6071 16.4147C44.6653 17.8215 43.4794 19.0493 42.1051 20.0405V20.0405Z" fill="white"/>
</svg>
